<svg width="128" height="128" viewBox="0 0 128 128" fill="none" xmlns="http://www.w3.org/2000/svg">
<circle cx="64" cy="64" r="63" fill="url(#paint0_linear)"/>
<path d="M39.1107 98.5846V104H37.0944V90.667H39.3746C40.4937 90.667 41.3382 90.7409 41.9083 90.8992C42.4889 91.0576 42.9851 91.3532 43.4285 91.7755C44.1886 92.525 44.5792 93.4646 44.5792 94.6047C44.5792 95.8293 44.1674 96.79 43.3546 97.5078C42.5311 98.2257 41.4227 98.5846 40.0397 98.5846H39.1107ZM39.1107 96.7161H39.8602C41.7077 96.7161 42.6261 96.0087 42.6261 94.5836C42.6261 93.2112 41.676 92.525 39.7652 92.525H39.1002V96.7161H39.1107Z" fill="white"/>
<path d="M83.2599 95.9876L88.4433 90.667H91.1248L85.0968 96.7055L91.1565 104H88.4645L83.6611 98.0673L83.2494 98.479V103.99H81.233V90.667H83.2494V95.9876H83.2599Z" fill="white"/>
<path d="M69.631 90.667L61.6395 103.99H64.2682L66.0628 100.949L67.0763 99.1652L69.5888 94.9108L71.9747 99.1652L72.9776 100.949L74.6667 103.99H77.3375L69.631 90.667Z" fill="white"/>
<path d="M57.7338 90.6865H48.4543V92.9035H57.7338V90.6865Z" fill="white"/>
<path d="M57.7436 96.2295H48.4641V98.4464H57.7436V96.2295Z" fill="white"/>
<path d="M57.7436 101.782H48.4641V103.999H57.7436V101.782Z" fill="white"/>
<path d="M37 24V78.0299H91.0299V24H37ZM86.2054 73.2054H41.8139V28.8139H86.2054V73.2054Z" fill="white"/>
<path d="M63.9827 39.3379L50.0266 62.6263H54.6083L57.7542 57.3056L59.5278 54.2019L63.9088 46.7488L68.0999 54.2019L69.8312 57.3056L72.7871 62.6263H77.4533L63.9827 39.3379Z" fill="white"/>
<defs>
<linearGradient id="paint0_linear" x1="64" y1="-7.91509" x2="64" y2="138.887" gradientUnits="userSpaceOnUse">
<stop stop-color="#00A2E4"/>
<stop offset="1" stop-color="#00D2DB"/>
</linearGradient>
</defs>
</svg>
