<?xml version="1.0" standalone="no"?>
<!DOCTYPE svg PUBLIC "-//W3C//DTD SVG 1.1//EN" "http://www.w3.org/Graphics/SVG/1.1/DTD/svg11.dtd" >
<svg xmlns="http://www.w3.org/2000/svg">
<metadata>Generated by IcoMoon</metadata>
<defs>
<font id="timeline" horiz-adv-x="1024">
<font-face units-per-em="1024" ascent="960" descent="-64" />
<missing-glyph horiz-adv-x="1024" />
<glyph unicode="&#x20;" horiz-adv-x="512" d="" />
<glyph unicode="&#xe900;" d="M475.711 261.632h-216.115c-13.306 0-23.386 11.059-23.386 23.757 0 13.517 10.886 23.757 23.386 23.757h235.469c13.306 23.757 30.24 45.056 49.19 62.669h-284.659c-13.306 0-23.386 11.059-23.386 23.757 0 13.517 10.886 23.757 23.386 23.757h305.626c10.886 0 20.16-7.782 22.579-16.794 33.466 18.842 71.77 28.672 112.493 28.672 6.854 0 12.499 0 19.354-0.819v417.792c0.806 45.875-37.094 83.149-81.043 83.149h-452.39c-45.158 0-81.85-37.274-81.85-83.149v-613.99c0-45.875 36.691-83.149 81.85-83.149h283.853c-2.419 13.517-4.032 27.853-4.032 43.418-0.403 22.938 2.822 45.875 9.677 67.174zM414.022 733.901c61.69 0 103.622-47.514 103.622-118.784 0-51.61-21.773-92.57-58.464-109.363 20.16-4.915 40.723-9.421 57.658-12.698l4.032-0.819-10.886-31.539-2.419 0.819c-29.030 8.602-60.077 16.794-85.882 26.214-4.838 1.638-8.467 3.277-12.499 3.277-51.206 2.048-102.816 40.141-102.816 118.784-0.806 72.090 43.142 124.109 107.654 124.109z" />
<glyph unicode="&#xe901;" d="M411.602 522.547c47.578 0 68.544 45.875 68.544 90.931 0 43.418-20.966 88.883-67.738 88.883-17.338 0-32.659-5.734-44.352-17.613-15.725-15.974-24.998-43.418-24.998-73.728 0-28.672 8.467-54.067 24.998-70.451 12.499-11.878 26.611-18.022 43.546-18.022z" />
<glyph unicode="&#xe902;" d="M688.601-35.328c127.599 0 231.031 105.080 231.031 234.701s-103.432 234.701-231.031 234.701c-127.596 0-231.034-105.079-231.034-234.701s103.438-234.701 231.034-234.701z" />
<glyph unicode="&#xe903;" d="M648.281 171.52l-43.949 45.875-31.853-33.997 75.802-80.694 156.439 159.747-31.85 32.768-124.589-123.699z" />
<glyph unicode="&#xe904;" d="M730.317 25.344c124.643 0 225.691 102.624 225.691 229.216s-101.048 229.216-225.691 229.216c-124.645 0-225.69-102.623-225.69-229.216s101.045-229.216 225.69-229.216z" />
<glyph unicode="&#xe905;" d="M504.218 254.56c0 71.552 33.178 139.776 89.293 183.456l-67.994 73.216c-18.022-7.072-35.635-13.728-53.658-22.464-22.938-12.064-49.971-14.56-74.547-8.736-60.211 14.56-79.053 49.088-84.787 75.712-11.878 58.656 38.093 102.336 53.658 114.4l2.458 1.664 10.24 6.24 2.458 0.832c4.096 1.664 16.794 7.072 35.635 14.56l-57.754 32.864 11.059 12.064c15.155 16.224 15.155 42.432 0 58.656l-57.754 61.152c-15.974 16.224-41.779 16.224-57.754 0.832 0 0 0 0-0.819-0.832l-213.811-230.88c-15.155-16.224-15.155-42.432 0-58.656l56.934-61.984c15.155-16.224 40.55-17.056 56.934-0.832l0.819 0.832 10.24 11.232 86.426-146.432c0.819-1.664 1.638-2.496 2.458-3.328l157.696-169.728c22.118-24.128 60.211-25.792 83.968-2.496 0.819 0.832 1.638 1.664 2.458 2.496 3.277 3.328 6.144 7.072 8.602 11.232-1.638 14.976-2.458 29.536-2.458 44.928z" />
<glyph unicode="&#xe906;" d="M390.758 635.616c-7.782-6.24-45.875-37.024-38.093-72.384 4.096-21.632 22.938-36.192 54.477-44.096 15.974-4.16 33.178-1.664 48.333 4.992 26.214 12.896 54.477 24.128 83.149 32.864l91.75-98.176c31.539 16.224 66.355 24.128 101.171 24.128 14.336 0 27.853-1.664 41.779-4.16l-71.27 201.76-140.902 16.224c-12.698 1.664-24.576 0-36.454-4.992-72.090-31.2-117.965-49.92-128.205-54.496l-5.734-1.664z" />
<glyph unicode="&#xe907;" d="M993.28 469.216l-100.352 283.712c-7.784 21.632-30.72 32.864-52.432 25.792l-78.23-27.456c-10.24-3.328-18.842-11.232-22.938-21.632-4.915-10.4-4.915-21.632-1.638-32.032l82.326-231.712c34.816-15.392 66.36-39.52 89.296-70.72l59.392 21.632c10.24 3.328 18.84 11.232 22.936 21.632 4.096 9.568 4.92 20.8 1.64 30.784z" />
<glyph unicode="&#xe908;" d="M849.92 277.024h-97.894v99.424h-44.646v-99.424h-97.075v-44.512h97.075v-99.424h44.646v99.424h97.894v44.512z" />
<glyph unicode="&#xe909;" glyph-name="Add" d="M841.6 782.4c-183.2 183.2-480.8 183.2-664 0s-183.2-480.8 0-664c183.2-183.2 480.8-183.2 664 0 183.2 184 183.2 480.8 0 664zM749.6 396.8h-184.8v-188c0-30.4-24-54.4-54.4-54.4s-54.4 24-54.4 54.4v188h-187.2c-30.4 0-54.4 24-54.4 54.4v0.8c0 30.4 24 54.4 54.4 54.4h187.2v185.6c0 30.4 24 54.4 54.4 54.4s54.4-24 54.4-54.4v-185.6h184.8c30.4 0 54.4-24 54.4-54.4v-0.8c0-30.4-24-54.4-54.4-54.4z" />
<glyph unicode="&#xe90a;" glyph-name="Approve-Plan-Green" d="M972.392 897.741l-47.512 32.358c-4.096 2.458-10.24 1.638-13.52-3.277l-411.238-605.798-224.87 206.848c-4.096 4.096-11.878 2.458-16.794-2.458l-33.997-36.454c-4.915-4.915-4.915-12.698-0.819-16.794l284.262-261.325 466.128 673.382c3.272 4.915 2.456 11.059-1.64 13.517zM820.432 610.202c36.448-59.392 57.752-129.024 57.752-203.571 0-214.63-174.9-388.302-388.302-388.302-214.63 0-388.301 174.901-388.301 388.302 0 214.63 174.899 388.301 388.301 388.301 88.883 0 171.213-29.491 236.749-80.691l29.491 44.237c-73.728 56.115-166.298 90.112-266.24 90.112-243.302 0-441.959-198.656-441.959-441.958s197.427-441.958 441.959-441.958c243.302 0 441.958 198.656 441.958 441.958 0 93.389-28.672 179.814-78.232 251.085l-33.176-47.514z" />
<glyph unicode="&#xe90b;" glyph-name="Approve" d="M466.066 20c-103.2 0-206.4 37.6-288.8 112.8-172.8 159.197-184 429.597-24.8 601.597 116 125.6 295.2 170.4 456 112.8 20.8-7.2 32-30.4 24.8-52-7.2-20.8-30.4-32-52-24.8-130.4 46.4-275.2 10.4-368.8-91.2-128.8-139.2-119.2-358.4 20-487.2 140-128.797 358.4-119.997 487.2 20 46.4 50.4 76 112 87.198 179.2 3.2 22.4 24 37.6 46.4 33.6 22.4-3.2 37.6-24 33.6-46.4-12.8-83.2-50.4-160-107.198-221.597-84-90.4-198.4-136.8-313.6-136.8zM529.266 328.797c-15.2 0-28.799 5.6-39.199 16.8l-142.4 148.8c-20 20.8-20 53.6 0 74.4l1.599 1.6c10.4 11.2 24.001 16.8 39.201 16.8 14.4 0 28.8-5.6 39.2-16l100.8-103.2 359.198 351.2c10.4 9.6 24 15.2 37.6 15.2 14.4 0 28-5.6 38.4-16 20.8-20.8 20.8-55.2 0-76l-395.998-397.6c-10.4-10.4-24.001-16-38.401-16z" />
<glyph unicode="&#xe90c;" glyph-name="Calendar-Blue" d="M344 298.4h-80.8c-16 0-28.8-13.6-28.8-28.8v-50.4c0-16 13.6-28.8 28.8-28.8h80.8c16 0 28.8 13.6 28.8 28.8v50.4c0 16-12.8 28.8-28.8 28.8zM344 481.6h-80.8c-16 0-28.8-13.6-28.8-28.8v-50.4c0-16 13.6-28.8 28.8-28.8h80.8c16 0 28.8 13.6 28.8 28.8v50.4c0 16-12.8 28.8-28.8 28.8zM553.6 298.4h-81.6c-16 0-28.8-13.6-28.8-28.8v-50.4c0-16 13.6-28.8 28.8-28.8h81.6c16 0 28.8 13.6 28.8 28.8v50.4c0.8 16-12.8 28.8-28.8 28.8zM681.6 190.4h81.6c16 0 28.8 13.6 28.8 28.8v50.4c0 16-13.6 28.8-28.8 28.8h-81.6c-16 0-28.8-13.6-28.8-28.8v-50.4c0-16 12.8-28.8 28.8-28.8zM472.8 481.6c-16 0-28.8-13.6-28.8-28.8v-50.4c0-16 13.6-28.8 28.8-28.8h81.6c16 0 28.8 13.6 28.8 28.8v50.4c0 16-13.6 28.8-28.8 28.8-0.8 0-81.6 0-81.6 0zM681.6 373.6h81.6c16 0 28.8 13.6 28.8 28.8v50.4c0 16-13.6 28.8-28.8 28.8h-81.6c-16 0-28.8-13.6-28.8-28.8v-50.4c0-16 12.8-28.8 28.8-28.8zM912 744v0.8c-19.2 21.6-45.6 33.6-74.4 33.6h-73.6v44c0 18.4-14.4 32.8-32.8 33.6 0 0 0 0-0.8 0h-50.4c-18.4 0-32.8-14.4-33.6-32.8 0 0 0 0 0-0.8v-44h-268.8v44c0 18.4-14.4 32.8-32.8 33.6 0 0 0 0-0.8 0h-50.4c-18.4 0-32.8-14.4-33.6-32.8 0 0 0 0 0-0.8v-44h-72.8c-12.8 0-25.6-3.2-37.6-8-24.8-10.4-44.8-30.4-55.2-56-4-11.2-7.2-24-7.2-36v-532.8c0-55.2 44.8-100 100-100h650.4c55.2 0 100 44.8 100 100v532.8c0 24-8.8 47.2-25.6 65.6zM871.2 144.8c0-18.4-14.4-32.8-32.8-33.6h-650.4c-18.4 0-32.8 14.4-33.6 32.8v408h716.8v-407.2z" />
<glyph unicode="&#xe90d;" glyph-name="Cancel-Plan-Red" d="M512-35.328c-266.65 0-483.328 216.678-483.328 483.328s216.679 483.328 483.328 483.328c266.65 0 483.328-216.678 483.328-483.328s-216.678-483.328-483.328-483.328zM512 875.622c-235.93 0-427.622-191.693-427.622-427.622s191.693-427.624 427.622-427.624c235.93 0 427.624 191.694 427.624 427.624s-191.694 427.622-427.624 427.622zM288.768 224.768c13.926-13.926 36.454-13.926 50.381 0l172.851 172.851 172.851-172.851c13.926-13.926 36.454-13.926 50.381 0s13.926 36.454 0 50.381l-172.851 172.851 172.851 172.851c13.926 13.926 13.926 36.454 0 50.381s-36.045 13.926-50.381 0l-172.851-172.851-172.851 172.851c-13.926 13.926-36.454 13.926-50.381 0s-13.926-36.454 0-50.381l172.851-172.851-172.851-172.851c-13.926-13.926-13.926-36.454 0-50.381z" />
<glyph unicode="&#xe90e;" glyph-name="Cancel" d="M509.6 920c-259.2 0-469.6-210.4-469.6-469.6s210.4-469.6 469.6-469.6c259.2 0 469.6 210.4 469.6 469.6s-210.4 469.6-469.6 469.6zM509.6 848c92 0 177.6-32 244.8-84.8l-557.6-557.6c-52.8 68-84.8 152.8-84.8 244.8 0 219.2 178.4 397.6 397.6 397.6zM509.6 53.6c-92 0-177.6 32-244.8 84.8l557.6 557.6c52.8-67.2 84.8-152.8 84.8-244.8-0.8-220-178.4-397.6-397.6-397.6z" />
<glyph unicode="&#xe90f;" glyph-name="CheckIn-Blue" d="M879 569.651c0 199.885-163.838 361.677-367 361.677s-367.002-161.792-367.002-361.677c0-68.813 20.48-134.758 54.067-188.826 7.782-12.698 15.974-23.757 25.395-36.454l257.638-361.675c15.974-23.76 50.79-23.76 68.813 0 77.824 111 263.376 376.011 261.736 376.011 40.96 60.211 66.352 131.072 66.352 210.944zM512 389.837c-92.16 0-166.707 74.547-166.707 163.43s74.547 163.43 166.707 163.43c92.16 0 166.707-74.547 166.707-163.43s-74.547-163.43-166.707-163.43z" />
<glyph unicode="&#xe910;" glyph-name="Comment" d="M514.4 856c-255.2 2.4-464.8-153.6-466.4-347.2-0.8-112 73.6-220 200-288.8-2.4-43.2-34.4-92-53.6-121.6-1.6-3.2-5.6-12-5.6-22.4 0-13.6 13.6-31.2 30.4-30.4h8c96 14.4 182.4 104 196.8 120 28-3.2 56.8-7.2 84-7.2 256-2.4 465.6 151.2 467.2 342.4 0.8 192.8-204.8 352.8-460.8 355.2zM313.6 450.4c-27.2-2.4-51.2 18.4-53.6 45.6s18.4 51.2 45.6 53.6c27.2 2.4 51.2-18.4 53.6-45.6 0.8-28-18.4-51.2-45.6-53.6zM515.2 450.4c-27.2-2.4-51.2 18.4-53.6 45.6s18.4 51.2 45.6 53.6c27.2 2.4 51.2-18.4 53.6-45.6 2.4-26.4-18.4-51.2-45.6-53.6zM717.6 450.4c-27.2-2.4-51.2 18.4-53.6 45.6-0.8 27.2 19.2 52 45.6 53.6 27.2 2.4 51.2-18.4 53.6-45.6s-18.4-51.2-45.6-53.6z" />
<glyph unicode="&#xe911;" glyph-name="Create-Message-Blue" d="M262.554 454.554c38.91 0 70.451 31.542 70.451 70.451s-31.542 70.451-70.451 70.451c-38.909 0-70.451-31.542-70.451-70.451s31.542-70.451 70.451-70.451zM507.494 454.554c38.909 0 70.451 31.542 70.451 70.451s-31.542 70.451-70.451 70.451c-38.91 0-70.451-31.542-70.451-70.451s31.542-70.451 70.451-70.451zM751.206 454.554c38.909 0 70.45 31.542 70.45 70.451s-31.541 70.451-70.45 70.451c-38.91 0-70.451-31.542-70.451-70.451s31.542-70.451 70.451-70.451zM201.523 10.136c-7.782 0-15.155 3.28-21.299 8.6-8.602 8.608-11.059 22.12-5.734 34 10.24 22.12 42.189 89.704 68.813 148.275-57.754 22.938-108.544 62.669-146.637 111.821-44.237 59.802-67.994 131.072-67.994 205.619v25.395c0 188.826 153.191 342.426 342.426 342.426h282.214c188.824 0 342.424-153.19 342.424-342.426v-25.395c0-188.826-153.192-342.426-342.424-342.426h-90.522l-348.979-163.434c-3.686-0.816-8.192-2.456-12.288-2.456zM371.098 835.072c-160.973 0-291.635-130.662-291.635-291.635v-25.395c0-63.488 20.48-123.699 58.573-174.49 37.274-49.152 88.883-85.606 147.456-104.038l27.034-8.602-11.878-26.214c-16.794-38.093-38.912-84.786-56.115-122.058l306.79 144.176h100.762c160.973 0 291.637 130.662 291.637 291.635v25.395c0 160.973-130.664 291.635-291.637 291.635 0-0.41-280.986-0.41-280.986-0.41z" />
<glyph unicode="&#xe912;" d="M475.136 262.042h-219.546c-13.517 0-23.757 11.059-23.757 23.757 0 13.517 11.059 23.757 23.757 23.757h238.797c13.517 23.757 30.31 45.056 49.971 62.669h-288.768c-13.517 0-23.757 11.059-23.757 23.757 0 13.517 11.059 23.757 23.757 23.757h310.067c11.059 0 20.48-7.782 22.938-16.794 33.997 18.842 72.909 28.672 114.278 28.672 6.963 0 12.698 0 19.661-0.819v417.792c0.819 45.465-37.274 82.739-82.33 82.739h-459.162c-45.466 0-82.739-37.274-82.739-83.149v-613.171c0-45.875 37.274-83.152 83.149-83.152h287.949c-2.458 13.52-4.096 27.856-4.096 43.011-0.41 22.938 2.867 45.875 9.83 67.174zM412.467 733.901c62.669 0 104.858-47.514 104.858-118.784 0-51.61-22.118-92.16-59.392-109.363 20.48-4.915 41.37-9.421 58.573-12.698l4.096-0.819-11.059-31.539-2.458 0.819c-29.491 8.602-61.030 16.794-87.245 26.214-4.915 1.638-8.602 3.277-12.698 3.277-51.61 1.638-104.038 39.731-104.038 118.784-0.819 72.499 44.237 124.109 109.363 124.109z" />
<glyph unicode="&#xe913;" d="M410.009 522.957c48.333 0 69.632 45.875 69.632 90.522 0 43.008-21.299 88.883-68.813 88.883-17.613 0-33.178-5.734-45.056-17.613-15.974-15.974-25.395-43.008-25.395-73.728 0-28.672 8.602-54.067 25.395-70.451 12.698-11.469 27.034-17.613 44.237-17.613z" />
<glyph unicode="&#xe914;" d="M690.994-35.328c129.622 0 234.702 105.080 234.702 234.701s-105.080 234.701-234.702 234.701c-129.622 0-234.701-105.079-234.701-234.701s105.079-234.701 234.701-234.701z" />
<glyph unicode="&#xe915;" d="M815.92 222.31h-101.987v100.762h-46.285v-100.762h-101.171v-45.875h101.171v-101.579h46.285v101.579h101.987v45.875z" />
<glyph unicode="&#xe916;" glyph-name="Deal" d="M1013.84 408.8l-104 290.88c-3.992 10.621-11.92 19.3-22.136 24.243s-21.936 5.773-32.744 2.317l-81.68-28.32c-5.281-1.874-10.13-4.796-14.254-8.59s-7.439-8.382-9.746-13.49c-4.518-10.337-5.142-21.958-1.76-32.72l104.48-291.12c3.008-8.364 8.544-15.585 15.84-20.66s15.992-7.752 24.88-7.66c4.808 0.101 9.56 0.993 14.080 2.64l81.36 28.32c5.28 1.878 10.128 4.802 14.248 8.595 4.128 3.794 7.44 8.38 9.752 13.485 4.576 10.102 5.176 21.556 1.68 32.080zM213.6 277.040c-3.6 4.4-5.36 7.040-8 10.64l-62.8 104.32-10.56-8.88c-13.559-10.745-22.415-26.337-24.699-43.486s2.184-34.515 12.459-48.434c4.84-6.929 11.185-12.672 18.56-16.8-34.56-34.4-12.56-65.44-1.040-81.36 10.256-13.787 25.506-23.006 42.48-25.68 2.64 0 6.16-0.88 8.8-0.88h6.24c0.627-11.696 4.94-22.904 12.32-32 10.264-13.76 25.516-22.952 42.48-25.6 2.64 0 6.16-0.88 8.8-0.88 8.2 0.008 16.33 1.504 24 4.4 1.859-8.312 5.458-16.136 10.56-22.96 10.351-13.792 25.736-22.936 42.8-25.44 3.52 0 6.16-0.88 8.88-0.88 14.083-0.064 27.778 4.616 38.88 13.28l10.64 8.8c-5.735 4.248-11.089 8.984-16 14.16l-164.8 177.68zM470.88 428.24c-15.975-7.746-33.526-11.689-51.28-11.52-9.326-0.154-18.625 1.059-27.6 3.6-62.72 15.040-82.16 50.4-88.4 77.76-12.4 59.28 40 104.4 56 116.72l2.72 1.76 10.56 6.24 2.64 0.88c4.48 1.76 17.76 7.040 37.2 15.040l-60.16 34.48 11.52 12.4c7.668 8.122 11.94 18.87 11.94 30.040s-4.272 21.918-11.94 30.040l-60.080 62.8c-3.918 3.994-8.592 7.166-13.75 9.331s-10.696 3.282-16.29 3.282c-5.594 0-11.132-1.115-16.29-3.282s-9.832-5.338-13.75-9.331l-224-237.84c-7.673-8.136-11.947-18.897-11.947-30.080s4.274-21.944 11.947-30.080l59.28-64c3.809-4.18 8.447-7.519 13.62-9.803s10.766-3.465 16.42-3.465c5.654 0 11.247 1.18 16.42 3.465s9.811 5.623 13.62 9.803l10.64 11.52 91.040-150c0.657-1.347 1.582-2.545 2.72-3.52l165.28-173.36c5.71-6.232 12.694-11.168 20.479-14.472 7.786-3.296 16.189-4.88 24.641-4.648 8.446 0.008 16.802 1.736 24.559 5.080s14.753 8.224 20.561 14.36c5.479 6.024 9.962 12.88 13.28 20.32 12.281-6.864 26.494-9.456 40.408-7.376 13.914 2.088 26.742 8.736 36.472 18.896 5.256 6.194 9.717 13.020 13.28 20.32 12.298-7.025 26.59-9.738 40.606-7.708s26.953 8.684 36.754 18.908c5.788 5.779 10.31 12.699 13.28 20.32l43.28 16-209.92 221.040c-18.985-7.012-37.596-14.996-55.76-23.92zM708.8 627.2l-145.92 16.8c-12.937 1.85-26.134 0.020-38.080-5.28-75.12-32-122.88-51.28-133.52-56l-5.28-2.64c-8-6.16-48-38-40-74.24 4.4-22.16 22.96-36.24 56.56-45.12 16.917-3.949 34.67-2.089 50.4 5.28 27.906 13.564 56.885 24.802 86.64 33.6l205.44-216.4 75.12 41.6c-2.144 3.959-3.912 8.11-5.28 12.4l-106.080 290z" />
<glyph unicode="&#xe917;" glyph-name="Edit" d="M509.6 920c-259.2 0-469.6-210.4-469.6-469.6s210.4-469.6 469.6-469.6c259.2 0 469.6 210.4 469.6 469.6-0.8 259.2-210.4 469.6-469.6 469.6zM593.6 416.8l-17.6-17.6c-64-64-127.2-127.2-169.6-170.4-2.4-2.4-4.8-3.2-8-4l-117.6-19.2c-0.8 0-1.6 0-2.4 0-4 0-8 1.6-11.2 4.8-2.4 3.2-4 7.2-3.2 12l19.2 117.6c0.8 3.2 1.6 5.6 4 8 46.4 46.4 117.6 117.6 187.2 188 17.6 17.6 35.2 35.2 52 52l118.4-118.4c-16-17.6-33.6-35.2-51.2-52.8zM767.2 591.2c-21.6-21.6-48-48.8-77.6-78.4l-118.4 118.4c29.6 29.6 56 56.8 77.6 78.4 2.4 2.4 6.4 4 10.4 4s7.2-1.6 10.4-4l97.6-97.6c5.6-6.4 5.6-15.2 0-20.8z" />
<glyph unicode="&#xe918;" d="M475.136 261.632h-219.546c-13.517 0-23.757 11.059-23.757 23.757 0 13.517 11.059 23.757 23.757 23.757h239.206c13.517 23.757 30.72 45.056 49.971 62.669h-289.178c-13.517 0-23.757 11.059-23.757 23.757 0 13.517 11.059 23.757 23.757 23.757h310.477c11.059 0 20.48-7.782 22.938-16.794 33.997 18.842 72.909 28.672 114.278 28.672 6.963 0 12.698 0 19.661-0.819v417.792c0.819 45.875-37.683 83.149-82.33 83.149h-459.571c-45.875 0-83.149-37.274-83.149-83.149v-613.99c0-45.875 37.274-83.149 83.149-83.149h288.358c-2.458 13.517-4.096 27.853-4.096 43.418-0.41 22.938 2.867 45.875 9.83 67.174zM412.467 733.901c62.669 0 105.267-47.514 105.267-118.784 0-51.61-22.118-92.57-59.392-109.363 20.48-4.915 41.37-9.421 58.573-12.698l4.096-0.819-11.059-31.539-2.458 0.819c-29.491 8.602-61.030 16.794-87.245 26.214-4.915 1.638-8.602 3.277-12.698 3.277-52.019 2.048-104.448 40.141-104.448 118.784-0.819 72.090 43.827 124.109 109.363 124.109z" />
<glyph unicode="&#xe919;" d="M410.010 522.547c48.333 0 69.632 45.875 69.632 90.931 0 43.418-21.299 88.883-68.813 88.883-17.613 0-33.178-5.734-45.056-17.613-15.974-15.974-25.395-43.418-25.395-73.728 0-28.672 8.602-54.067 25.395-70.451 12.698-11.878 27.034-18.022 44.237-18.022z" />
<glyph unicode="&#xe91a;" d="M691.405-35.328c129.619 0 234.699 105.080 234.699 234.701s-105.080 234.701-234.699 234.701c-129.622 0-234.701-105.079-234.701-234.701s105.079-234.701 234.701-234.701z" />
<glyph unicode="&#xe91b;" d="M719.258 269.824c-1.638 1.638-4.915 1.638-6.963 0l-128.205-127.384c-2.458-2.456-2.458-5.736 0-7.784l43.418-38.912c2.458-1.64 4.915-1.64 7.782 0l127.386 127.386c1.638 1.638 1.638 4.915 0 6.963l-43.418 39.731z" />
<glyph unicode="&#xe91c;" d="M570.982 80.176h45.056c0.819 0 0.819 0.824 0.819 1.64l-44.237 39.736c-0.819 0.816-1.638 0-1.638-0.824 0 0 0-40.552 0-40.552z" />
<glyph unicode="&#xe91d;" d="M808.552 284.16l-33.998 31.539c-4.096 4.096-11.059 3.277-14.336 0l-25.395-24.576c-1.638-1.638-1.638-4.915 0-7.782l43.418-38.912c1.638-1.638 4.915-1.638 6.963 0l23.757 24.576c4.504 4.506 4.504 11.059-0.408 15.155z" />
<glyph unicode="&#xe91e;" d="M729.907 32.664c124.421 0 225.277 100.864 225.277 225.282s-100.856 225.28-225.277 225.28c-124.419 0-225.28-100.862-225.28-225.28s100.861-225.282 225.28-225.282z" />
<glyph unicode="&#xe91f;" d="M504.218 257.946c0 70.451 33.178 137.216 88.883 180.634l-67.994 72.090c-17.613-6.963-35.635-13.517-53.248-22.118-22.938-11.878-49.971-14.336-74.547-8.602-60.211 14.336-78.643 48.333-84.787 74.547-11.878 56.934 38.093 99.942 53.248 111.821l2.458 1.638 10.24 5.734 2.458 0.819c4.096 1.638 16.794 6.963 35.635 14.336l-57.754 32.358 11.059 11.878c15.155 15.974 15.155 41.37 0 57.754l-56.934 60.621c-15.974 15.974-41.37 15.974-57.754 0.819 0 0 0 0-0.819-0.819l-213.401-227.328c-15.155-15.974-15.155-41.37 0-57.754l56.525-61.030c15.155-15.974 40.55-16.794 56.934-0.819l0.819 0.819 10.24 11.059 86.426-144.179c0.819-1.638 1.638-2.458 2.458-3.277l157.696-167.117c22.118-23.757 60.211-25.395 83.968-2.458 0.819 0.819 1.638 1.638 2.458 2.458 3.277 3.277 5.734 6.963 8.602 11.059-2.048 15.565-2.867 29.901-2.867 45.056z" />
<glyph unicode="&#xe920;" d="M390.758 632.73c-7.782-5.734-45.875-36.454-38.093-71.27 4.096-21.299 22.938-35.635 54.067-43.418 15.974-4.096 33.178-1.638 48.333 4.915 26.214 12.698 54.067 23.757 83.149 32.358l91.341-96.666c31.539 15.974 65.946 23.757 100.762 23.757 14.336 0 27.853-1.638 41.37-4.096l-71.27 198.246-139.264 16.384c-12.698 1.638-24.576 0-36.454-4.915-72.090-30.31-117.965-49.152-127.795-53.248l-6.144-2.048z" />
<glyph unicode="&#xe921;" d="M992.464 468.89l-99.944 278.938c-7.784 21.299-30.312 32.358-52.432 25.395l-77.822-27.034c-10.24-3.277-18.842-11.059-22.938-21.299-4.915-10.24-4.915-21.299-1.638-31.539l82.326-228.147c34.816-15.155 65.952-38.912 88.888-69.632l59.392 21.299c10.24 3.277 18.84 11.059 22.936 21.299 4.096 9.83 4.912 20.89 1.232 30.72z" />
<glyph unicode="&#xe922;" d="M843.368 241.971l-111.003 0.819v118.784c0 9.421-8.602 15.155-15.974 15.155-9.421 0-15.974-6.963-15.974-15.155v-133.939c0-9.421 6.963-15.974 15.974-15.974h126.978c7.784 0 15.976 6.963 15.976 15.974s-8.192 14.336-15.976 14.336z" />
<glyph unicode="&#xe923;" d="M473.498 261.632h-219.546c-13.517 0-23.757 11.059-23.757 23.757 0 13.517 11.059 23.757 23.757 23.757h239.206c13.517 23.757 30.721 45.056 49.972 62.669h-289.178c-13.517 0-23.757 11.059-23.757 23.757 0 13.517 11.059 23.757 23.757 23.757h310.478c11.059 0 20.479-7.782 22.937-16.794 33.997 18.842 72.91 28.672 114.279 28.672 6.963 0 12.698 0 19.661-0.819v417.792c0.41 45.875-37.683 83.149-82.739 83.149h-459.572c-45.875 0-83.149-37.274-83.149-83.149v-613.99c0-45.875 37.274-83.149 83.149-83.149h288.358c-2.458 13.517-4.096 27.853-4.096 43.418 0 22.938 3.277 45.875 10.24 67.174zM410.829 733.901c62.669 0 105.268-47.514 105.268-118.784 0-51.61-22.119-92.57-59.393-109.363 20.48-4.915 41.37-9.421 58.573-12.698l4.096-0.819-11.059-31.539-2.458 0.819c-29.491 8.602-61.030 16.794-87.245 26.214-4.915 1.638-8.602 3.277-12.698 3.277-51.61 1.638-104.448 39.731-104.448 118.784-1.229 72.090 43.827 124.109 109.363 124.109z" />
<glyph unicode="&#xe924;" d="M407.962 522.547c48.333 0 69.632 45.875 69.632 90.931 0 43.418-21.299 88.883-68.813 88.883-17.613 0-33.178-5.734-45.056-17.613-15.974-15.974-25.395-43.418-25.395-73.728 0-28.672 8.602-54.067 25.395-70.451 12.288-11.878 27.443-18.022 44.237-18.022z" />
<glyph unicode="&#xe925;" d="M692.225-35.328c130.303 0 235.927 105.632 235.927 235.93 0 130.3-105.624 235.93-235.927 235.93-130.301 0-235.93-105.63-235.93-235.93 0-130.298 105.629-235.93 235.93-235.93z" />
<glyph unicode="&#xe926;" d="M849.92 189.542l-32.36 90.931c-2.456 6.963-10.24 10.24-16.792 8.602l-25.395-9.421c-3.277-0.819-5.734-3.277-7.782-6.963-1.638-3.277-1.638-6.963-0.819-10.24l32.358-90.93c1.638-5.734 6.966-9.421 12.694-9.421 1.64 0 2.464 0 4.096 0.818l25.4 9.422c3.272 0.819 5.736 3.276 7.784 6.962s1.632 6.554 0.816 10.24z" />
<glyph unicode="&#xe927;" d="M598.835 148.584c-0.819 0.816-1.638 2.456-2.458 3.272l-19.661 32.362-3.277-2.458c-8.602-6.963-10.24-19.661-4.096-28.672 1.638-2.456 3.277-4.096 5.734-4.912-11.059-11.064-3.277-20.48 0-25.4 3.277-4.096 7.782-7.784 13.517-7.784 0.819 0 1.638 0 2.458 0s0.819 0 1.638 0c0-3.272 1.638-6.96 3.277-10.24 3.277-4.096 7.782-7.776 13.517-7.776 0.819 0 1.638 0 2.458 0 2.458 0 4.915 0.816 7.782 1.632 0.819-2.456 1.638-4.912 3.277-6.96 3.277-4.096 7.782-7.784 13.517-7.784 0.819 0 1.638 0 2.458 0 4.096 0 8.602 1.64 11.878 4.096l3.277 2.456c-1.638 0.824-3.277 2.464-4.915 4.096l-50.381 54.072z" />
<glyph unicode="&#xe928;" d="M679.526 195.277c-4.915-2.458-10.24-3.277-15.974-3.277-2.458 0-5.734 0-8.602 0.819-19.661 4.915-25.395 15.974-27.034 23.757-3.277 18.842 12.698 32.358 17.613 36.454l0.819 0.819 3.277 1.638h0.819c1.638 0.819 5.734 2.458 11.878 4.915l-18.842 11.059 3.277 3.277c4.915 4.915 4.915 13.517 0 18.842l-18.842 19.661c-4.915 4.915-13.517 4.915-18.842 0l-69.632-73.728c-4.915-4.915-4.915-13.517 0-18.842l18.842-19.661c2.458-2.458 5.734-4.096 9.421-4.096s6.963 1.638 9.421 4.096l3.277 3.277 27.853-46.696c0-0.816 0.819-0.816 0.819-0.816l51.61-54.072c3.277-4.096 8.602-5.728 14.336-5.728 4.915 0 10.24 2.456 14.336 5.728 1.638 1.64 3.277 4.096 4.096 6.968 7.782-4.096 17.613-3.28 23.757 3.272 1.638 1.64 3.277 4.096 4.096 6.968 7.782-4.096 17.613-3.28 23.757 3.272 1.638 1.64 3.277 4.096 4.096 6.968l13.517 4.912-66.355 67.995c-4.915-1.638-11.878-4.506-16.794-7.782z" />
<glyph unicode="&#xe929;" d="M754.074 257.946l-45.875 4.915c-4.096 0.819-8.602 0-11.878-1.638-23.757-10.24-38.093-15.974-41.37-16.794l-1.638-0.819c-2.458-1.638-15.155-11.878-12.698-22.938 1.638-6.963 7.782-11.878 17.613-13.517 4.915-0.819 10.24-0.819 15.155 1.638 8.602 4.096 21.299 9.421 27.034 10.24l63.488-67.994 23.757 12.698c-0.819 0.819-0.819 2.458-1.638 4.096l-31.949 90.112z" />
<glyph unicode="&#xe92a;" d="M730.317 31.848c124.643 0 225.691 101.040 225.691 225.688 0 124.645-101.048 225.69-225.691 225.69-124.645 0-225.69-101.045-225.69-225.69 0-124.648 101.045-225.688 225.69-225.688z" />
<glyph unicode="&#xe92b;" d="M504.218 257.536c0 71.27 33.178 137.626 90.112 180.634l-67.994 72.090c-18.022-6.963-35.635-13.517-53.658-22.118-22.938-11.878-49.971-14.336-74.547-8.602-60.211 14.336-79.053 48.333-84.787 74.547-11.878 57.754 38.093 100.762 53.658 112.64l2.458 1.638 10.24 6.144 2.458 0.819c4.096 1.638 16.794 6.963 35.635 14.336l-58.573 32.358 11.059 11.878c15.155 15.974 15.155 41.779 0 57.754l-57.754 60.211c-15.974 15.974-41.779 15.974-57.754 0.819 0 0 0 0-0.819-0.819l-213.811-227.328c-15.155-15.974-15.155-41.779 0-57.754l56.934-61.030c15.155-15.974 40.55-16.794 56.934-0.819l0.819 0.819 10.24 11.059 86.426-144.179c0.819-1.638 1.638-2.458 2.458-3.277l158.515-167.117c22.118-23.757 60.211-25.395 83.968-2.458 0.819 0.819 1.638 1.638 2.458 2.458 3.277 3.277 6.144 6.963 8.602 11.059-2.048 14.746-3.277 29.082-3.277 44.237z" />
<glyph unicode="&#xe92c;" d="M390.758 632.73c-7.782-6.144-45.875-36.454-38.093-71.27 4.096-21.299 22.938-34.816 54.477-43.418 15.974-4.096 33.178-1.638 48.333 4.915 27.034 12.698 54.477 23.757 83.149 32.358l90.931-96.666c31.539 15.974 66.355 23.757 101.171 23.757 14.336 0 28.672-1.638 42.598-4.096l-72.909 198.656-139.264 15.974c-12.698 1.638-24.576 0-36.454-4.915-72.090-30.72-117.965-49.152-128.205-53.658l-5.734-1.638z" />
<glyph unicode="&#xe92d;" d="M993.28 468.89l-100.352 279.347c-7.784 21.299-30.72 32.358-52.432 25.395l-78.23-27.034c-10.24-3.277-18.842-11.059-22.938-21.299-4.915-10.24-4.915-21.299-1.638-31.539l81.51-228.147c34.816-15.155 66.352-38.912 89.296-69.632l59.392 21.299c10.24 3.277 18.84 11.059 22.936 21.299 4.912 9.421 5.736 20.48 2.456 30.31z" />
<glyph unicode="&#xe92e;" d="M730.316 255.078c11.878 0 18.842 11.059 18.842 25.395s-6.963 24.576-18.842 24.576c-11.878 0-18.842-11.878-18.842-24.576s6.963-25.395 18.842-25.395z" />
<glyph unicode="&#xe92f;" d="M822.888 350.925c0 12.698-11.064 22.938-23.758 22.938h-138.445c-12.698 0-23.757-10.24-23.757-22.938v-186.778c0-11.059 8.602-21.299 19.661-22.939h146.635c11.064 1.64 19.664 11.88 19.664 22.939v186.778zM730.317 314.47c19.661 0 31.539-15.155 31.539-33.997 1.638-12.698-4.915-25.395-16.794-31.539 6.144-1.638 11.878-2.458 18.022-4.096l-3.277-9.421c-8.602 2.458-18.022 4.915-26.214 8.602-1.638 0.819-2.458 0.819-4.096 0.819-16.794 0.819-30.72 15.155-29.901 32.358 0 0.819 0 0.819 0 1.638-0.819 21.299 11.878 35.635 30.72 35.635zM777.011 176.435h-93.389c-3.277 0-6.963 3.277-6.963 6.963s3.277 6.963 6.963 6.963h92.57c3.277 0 6.963-3.277 6.963-6.963s-2.867-6.963-6.144-6.963zM777.011 208.384h-93.389c-3.277 0-6.144 3.277-6.144 7.782 0 3.277 2.458 6.144 6.144 6.144h92.57c3.277 0 6.144-3.277 6.144-7.782-0.41-3.686-2.867-6.144-5.325-6.144z" />
<glyph unicode="&#xe930;" glyph-name="Linked" d="M509.6 920c-259.2 0-469.6-210.4-469.6-469.6s210.4-469.6 469.6-469.6c259.2 0 469.6 210.4 469.6 469.6-0.8 259.2-210.4 469.6-469.6 469.6zM496 264l-57.6-65.6c-22.4-25.6-54.4-38.4-85.6-38.4-27.2 0-53.6 9.6-75.2 28.8l-20 17.6c-48 41.6-52 114.4-10.4 161.6l126.4 142.4c35.2 40 92.8 49.6 139.2 24.8 10.4-5.6 17.6-15.2 19.2-27.2 2.4-11.2-1.6-23.2-8.8-32l-0.8-0.8c-12-13.6-32-17.6-48-9.6-14.4 7.2-31.2 4-41.6-8l-126.4-142.4c-12.8-14.4-11.2-36.8 3.2-49.6l20-17.6c14.4-12.8 36.8-11.2 49.6 3.2l57.6 65.6c12.8 14.4 36 16 50.4 3.2l5.6-4.8c15.2-14.4 16.8-36.8 3.2-51.2zM771.2 533.6l-126.4-142.4c-22.4-24.8-53.6-38.4-85.6-38.4-17.6 0-36 4-52.8 12.8-10.4 5.6-17.6 15.2-20 27.2s0.8 24 8.8 32.8l0.8 0.8c12 13.6 31.2 16.8 46.4 8.8 14.4-7.2 32-4 42.4 8l127.2 142.4c12.8 14.4 11.2 36.8-3.2 49.6l-20 17.6c-14.4 12.8-36.8 11.2-49.6-3.2l-57.6-65.6c-12.8-14.4-36-16-50.4-3.2l-5.6 4.8c-14.4 12.8-16 36-3.2 50.4l57.6 65.6c41.6 47.2 113.6 51.2 160.8 9.6l20-17.6c48-40.8 52-112.8 10.4-160z" />
<glyph unicode="&#xe931;" glyph-name="Locate-Green" d="M879.824 569.242c0 200.294-164.253 362.086-367.824 362.086s-367.821-161.792-367.821-362.086c0-69.632 19.661-133.939 54.067-189.235 7.782-11.878 15.974-23.757 25.395-35.635l257.638-362.083c16.794-23.76 51.61-23.76 68.813 0 77.824 111 263.779 376.419 261.323 376.419 43.008 60.621 68.408 131.891 68.408 210.534zM512 391.066c-92.57 0-167.117 73.728-167.117 164.659s74.547 162.611 167.117 162.611c92.57 0 167.117-73.728 167.117-164.659s-74.547-162.611-167.117-162.611z" />
<glyph unicode="&#xe932;" d="M576.64 912c-225.6 37.68-418.96-124.96-420.72-342.72-0.8-96 46.8-178.24 106.24-263.44 79.2-113.36 169.92-242.72 217.28-310.080 3.686-5.28 8.594-9.592 14.304-12.576 5.71-2.976 12.056-4.528 18.496-4.528s12.786 1.552 18.496 4.528c5.711 2.984 10.618 7.296 14.304 12.576 50.64 70.96 131.36 186.32 216 310.8 57.12 84.080 100.080 154.8 106 230.32 14.4 182.72-109.44 345.28-290.4 375.12z" />
<glyph unicode="&#xe933;" d="M600.64 522.64l14.8-88c0.431-2.415 0.171-4.903-0.748-7.178s-2.462-4.244-4.451-5.681c-1.989-1.438-4.342-2.284-6.79-2.444s-4.892 0.375-7.050 1.542l-78.8 41.76c-1.889 0.988-3.988 1.505-6.12 1.505s-4.231-0.517-6.12-1.505l-79.040-41.28c-2.174-1.148-4.627-1.662-7.080-1.483s-4.805 1.042-6.79 2.494c-1.985 1.451-3.522 3.431-4.436 5.714s-1.169 4.776-0.734 7.196l15.36 88c0.366 2.094 0.215 4.245-0.441 6.266s-1.794 3.853-3.319 5.334l-64 62.4c-1.761 1.714-3.006 3.888-3.591 6.274s-0.49 4.889 0.277 7.224c0.767 2.334 2.174 4.406 4.062 5.98s4.178 2.586 6.613 2.922l88 12.56c2.114 0.302 4.124 1.115 5.853 2.37s3.125 2.913 4.067 4.83l40 80c1.085 2.193 2.761 4.038 4.838 5.329s4.475 1.974 6.922 1.974c2.446 0 4.844-0.684 6.922-1.974s3.754-3.136 4.838-5.329l39.28-80c0.912-1.924 2.29-3.59 4.008-4.847s3.722-2.066 5.832-2.353l88-13.12c2.422-0.36 4.694-1.39 6.56-2.974s3.252-3.658 4.001-5.989c0.75-2.33 0.832-4.824 0.238-7.198s-1.84-4.536-3.598-6.239l-64-62.080c-1.517-1.561-2.619-3.477-3.206-5.573s-0.639-4.306-0.154-6.427z" />
<glyph unicode="&#xe934;" d="M730.317 31.848c124.643 0 225.691 101.040 225.691 225.688 0 124.645-101.048 225.69-225.691 225.69-124.645 0-225.69-101.045-225.69-225.69 0-124.648 101.045-225.688 225.69-225.688z" />
<glyph unicode="&#xe935;" d="M504.218 257.536c0 71.27 33.178 137.626 90.112 180.634l-67.994 72.090c-18.022-6.963-35.635-13.517-53.658-22.118-22.938-11.878-49.971-14.336-74.547-8.602-60.211 14.336-79.053 48.333-84.787 74.547-11.878 57.754 38.093 100.762 53.658 112.64l2.458 1.638 10.24 6.144 2.458 0.819c4.096 1.638 16.794 6.963 35.635 14.336l-58.573 32.358 11.059 11.878c15.155 15.974 15.155 41.779 0 57.754l-57.754 60.211c-15.974 15.974-41.779 15.974-57.754 0.819 0 0 0 0-0.819-0.819l-213.811-227.328c-15.155-15.974-15.155-41.779 0-57.754l56.934-61.030c15.155-15.974 40.55-16.794 56.934-1.638 0.819 0.819 0.819 0.819 1.638 1.638l10.24 11.059 87.245-144.179c0.819-1.638 1.638-2.458 2.458-3.277l157.696-167.117c22.118-23.757 60.211-25.395 83.968-2.458 0.819 0.819 1.638 1.638 2.458 2.458 3.277 3.277 6.144 6.963 8.602 11.059-2.048 14.746-4.096 29.082-4.096 44.237z" />
<glyph unicode="&#xe936;" d="M390.758 632.73c-7.782-6.144-45.875-36.454-38.093-71.27 4.096-21.299 22.118-34.816 54.477-43.418 15.974-4.096 33.178-1.638 48.333 4.915 27.034 12.698 54.477 23.757 83.149 32.358l90.931-96.666c31.539 15.974 66.355 23.757 101.171 23.757 14.336 0 28.672-1.638 42.598-4.096l-72.909 198.656-139.264 15.974c-12.698 1.638-24.576 0-36.454-4.915-72.090-30.72-117.965-49.152-128.205-53.658l-5.734-1.638z" />
<glyph unicode="&#xe937;" d="M993.28 468.89l-100.352 279.347c-7.784 21.299-30.72 32.358-52.432 25.395l-78.23-27.034c-10.24-3.277-18.842-11.059-22.938-21.299-4.915-10.24-4.915-21.299-1.638-31.539l81.51-228.147c35.632-15.155 66.352-38.912 89.296-69.632l59.392 21.299c10.24 3.277 18.84 11.059 22.936 21.299 4.912 9.421 5.736 20.48 2.456 30.31z" />
<glyph unicode="&#xe938;" d="M629.965 326.349l68.813-68.813-68.813-68.403 31.539-31.541 68.813 67.995 68.403-67.995 31.536 31.541-67.99 68.403 67.99 68.813-31.536 31.539-68.403-68.813-68.813 68.813-31.539-31.539z" />
<glyph unicode="&#xe939;" glyph-name="Missed" d="M509.6 848c219.2 0 397.6-178.4 397.6-397.6s-178.4-397.6-397.6-397.6c-219.2 0-397.6 178.4-397.6 397.6s178.4 397.6 397.6 397.6zM509.6 920c-259.2 0-469.6-210.4-469.6-469.6s210.4-469.6 469.6-469.6c259.2 0 469.6 210.4 469.6 469.6s-210.4 469.6-469.6 469.6zM700 330.4l-120.8 120.8 119.2 119.2c19.2 19.2 19.2 50.4 0 70.4l-0.8 0.8c-19.2 19.2-50.4 19.2-70.4 0l-118.4-120-119.2 119.2c-19.2 19.2-50.4 19.2-70.4 0-19.2-19.2-19.2-50.4 0-70.4l119.2-119.2-120-120c-19.2-19.2-19.2-50.4 0-70.4l0.8-0.8c19.2-19.2 50.4-19.2 70.4 0l120 120 120.8-120.8c19.2-19.2 50.4-19.2 70.4 0 18.4 20 18.4 52-0.8 71.2z" />
<glyph unicode="&#xe93a;" d="M318.4 212.8c-9.6 0-19.2 4-26.4 11.2-14.4 14.4-14.4 38.4 0 52.8l173.6 173.6-173.6 174.4c-14.4 14.4-14.4 38.4 0 52.8s38.4 14.4 52.8 0l200.8-200.8c14.4-14.4 14.4-38.4 0-52.8l-200-200c-8-8-17.6-11.2-27.2-11.2z" />
<glyph unicode="&#xe93b;" d="M563.2 212.8c-9.6 0-19.2 4-26.4 11.2-14.4 14.4-14.4 38.4 0 52.8l173.6 173.6-173.6 174.4c-14.4 14.4-14.4 38.4 0 52.8s38.4 14.4 52.8 0l200.8-200.8c14.4-14.4 14.4-38.4 0-52.8l-200-200c-8-8-17.6-11.2-27.2-11.2z" />
<glyph unicode="&#xe93c;" d="M509.6 920c-259.2 0-469.6-210.4-469.6-469.6s210.4-469.6 469.6-469.6c259.2 0 469.6 210.4 469.6 469.6-0.8 259.2-210.4 469.6-469.6 469.6zM345.6 224c-7.2-7.2-16.8-11.2-26.4-11.2s-20 3.2-27.2 11.2c-14.4 14.4-14.4 38.4 0 52.8l173.6 173.6-173.6 174.4c-14.4 14.4-14.4 38.4 0 52.8s38.4 14.4 52.8 0l200.8-200.8c14.4-14.4 14.4-38.4 0-52.8l-200-200zM790.4 424l-200-200c-7.2-7.2-16.8-11.2-26.4-11.2s-20 3.2-27.2 11.2c-14.4 14.4-14.4 38.4 0 52.8l173.6 173.6-173.6 174.4c-14.4 14.4-14.4 38.4 0 52.8s38.4 14.4 52.8 0l200.8-200.8c14.4-14.4 14.4-38.4 0-52.8z" />
<glyph unicode="&#xe93d;" d="M512.32 402.96c92.518 0 167.52 75.002 167.52 167.52s-75.002 167.52-167.52 167.52c-92.519 0-167.52-75.002-167.52-167.52s75.001-167.52 167.52-167.52z" />
<glyph unicode="&#xe93e;" d="M580.24 938.32c-238.16 39.52-442.32-132.16-444.24-362.32-0.88-101.44 49.44-188.16 112-278.080 84.080-120 180.48-257.68 230.24-328.48 3.81-5.416 8.865-9.832 14.741-12.88 5.876-3.056 12.398-4.648 19.019-4.648s13.143 1.592 19.018 4.648c5.876 3.048 10.932 7.464 14.742 12.88 53.36 74.8 139.12 197.2 228.8 329.28 60.32 88.8 105.68 163.44 112 243.2 15.44 193.040-115.28 364.64-306.32 396.4zM512 443.6c-22.834 0.063-45.138 6.892-64.092 19.624s-33.712 30.796-42.406 51.91c-8.694 21.114-10.937 44.331-6.443 66.718s15.521 42.942 31.69 59.066c16.168 16.123 36.752 27.094 59.152 31.526s45.611 2.125 66.701-6.627c21.090-8.753 39.113-23.56 51.792-42.55s19.446-41.312 19.447-64.146c0.010-15.2-2.981-30.253-8.802-44.294s-14.359-26.794-25.122-37.527c-10.763-10.734-23.54-19.236-37.598-25.018s-29.118-8.733-44.318-8.68z" />
<glyph unicode="&#xe93f;" d="M475.136 261.632h-219.546c-13.517 0-23.757 11.059-23.757 23.757 0 13.517 11.059 23.757 23.757 23.757h239.206c13.517 23.757 30.72 45.056 49.971 62.669h-289.178c-13.517 0-23.757 11.059-23.757 23.757 0 13.517 11.059 23.757 23.757 23.757h310.477c11.059 0 20.48-7.782 22.938-16.794 33.997 18.842 72.909 28.672 114.278 28.672 6.963 0 12.698 0 19.661-0.819v417.792c0.819 45.875-37.683 83.149-82.33 83.149h-459.571c-45.875 0-83.149-37.274-83.149-83.149v-613.99c0-45.875 37.274-83.149 83.149-83.149h288.358c-2.458 13.517-4.096 27.853-4.096 43.418-0.41 22.938 2.867 45.875 9.83 67.174zM412.467 733.901c62.669 0 105.267-47.514 105.267-118.784 0-51.61-22.118-92.57-59.392-109.363 20.48-4.915 41.37-9.421 58.573-12.698l4.096-0.819-11.059-31.539-2.458 0.819c-29.491 8.602-61.030 16.794-87.245 26.214-4.915 1.638-8.602 3.277-12.698 3.277-52.019 2.048-104.448 40.141-104.448 118.784-0.819 72.090 43.827 124.109 109.363 124.109z" />
<glyph unicode="&#xe940;" d="M410.010 522.547c48.333 0 69.632 45.875 69.632 90.931 0 43.418-21.299 88.883-68.813 88.883-17.613 0-33.178-5.734-45.056-17.613-15.974-15.974-25.395-43.418-25.395-73.728 0-28.672 8.602-54.067 25.395-70.451 12.698-11.878 27.034-18.022 44.237-18.022z" />
<glyph unicode="&#xe941;" d="M691.405-35.328c129.619 0 234.699 105.080 234.699 234.701s-105.080 234.701-234.699 234.701c-129.622 0-234.701-105.079-234.701-234.701s105.079-234.701 234.701-234.701z" />
<glyph unicode="&#xe942;" d="M586.957 270.643l72.090-71.27-72.090-72.093 33.178-31.944 71.27 70.45 71.27-70.45 32.768 31.944-70.042 72.093 70.042 71.27-32.768 32.358-71.27-71.27-71.27 71.27-33.178-32.358z" />
<glyph unicode="&#xe943;" d="M475.136 261.632h-219.546c-13.517 0-23.757 11.059-23.757 23.757 0 13.517 11.059 23.757 23.757 23.757h239.206c13.517 23.757 30.72 45.056 49.971 62.669h-289.178c-13.517 0-23.757 11.059-23.757 23.757 0 13.517 11.059 23.757 23.757 23.757h310.477c11.059 0 20.48-7.782 22.938-16.794 33.997 18.842 72.909 28.672 114.278 28.672 6.963 0 12.698 0 19.661-0.819v417.792c0.819 45.875-37.683 83.149-82.33 83.149h-459.571c-45.875 0-83.149-37.274-83.149-83.149v-613.99c0-45.875 37.274-83.149 83.149-83.149h288.358c-2.458 13.517-4.096 27.853-4.096 43.418-0.41 22.938 2.867 45.875 9.83 67.174zM412.467 733.901c62.669 0 105.267-47.514 105.267-118.784 0-51.61-22.118-92.57-59.392-109.363 20.48-4.915 41.37-9.421 58.573-12.698l4.096-0.819-11.059-31.539-2.458 0.819c-29.491 8.602-61.030 16.794-87.245 26.214-4.915 1.638-8.602 3.277-12.698 3.277-52.019 2.048-104.448 40.141-104.448 118.784-0.819 72.090 43.827 124.109 109.363 124.109z" />
<glyph unicode="&#xe944;" d="M410.010 522.547c48.333 0 69.632 45.875 69.632 90.931 0 43.418-21.299 88.883-68.813 88.883-17.613 0-33.178-5.734-45.056-17.613-15.974-15.974-25.395-43.418-25.395-73.728 0-28.672 8.602-54.067 25.395-70.451 12.698-11.878 27.034-18.022 44.237-18.022z" />
<glyph unicode="&#xe945;" d="M691.405-35.328c129.619 0 234.699 105.080 234.699 234.701s-105.080 234.701-234.699 234.701c-129.622 0-234.701-105.079-234.701-234.701s105.079-234.701 234.701-234.701z" />
<glyph unicode="&#xe946;" d="M815.92 222.31h-101.578v101.171h-46.694v-101.171h-100.762v-45.466h100.762v-101.989h46.694v101.989h101.578v45.466z" />
<glyph unicode="&#xe947;" glyph-name="Revise" d="M501.6-18.4c-259.2 0-469.6 210.4-469.6 468.8 0 259.2 210.4 469.6 469.6 469.6 188 0 357.6-112 431.2-284.8 9.6-21.6-0.8-47.2-22.4-56-21.6-9.6-47.2 0.8-56 22.4-60.8 141.6-199.2 232.8-352.8 232.8-211.2 0-384-172-384-384s172-384 384-384c211.2 0 384 172 384 384 0 24 19.2 43.2 43.2 43.2s43.2-19.2 43.2-43.2c-1.6-258.4-212-468.8-470.4-468.8zM896.8 568c-3.2 0-6.4 0.8-9.6 1.6l-155.2 40.8c-23.2 6.4-36.8 29.6-30.4 52 6.4 23.2 29.6 36.8 52 30.4l116-30.4 34.4 106.4c7.2 22.4 31.2 35.2 53.6 28s35.2-31.2 28-53.6l-46.4-145.6c-5.6-18.4-23.2-29.6-42.4-29.6zM679.2 489.6h-132v130.4c0 21.6-17.6 38.4-38.4 38.4h-0.8c-21.6 0-38.4-17.6-38.4-38.4v-130.4h-131.2c-21.6 0-38.4-17.6-38.4-38.4 0-21.6 17.6-38.4 38.4-38.4h131.2v-132c0-21.6 17.6-38.4 38.4-38.4h0.8c21.6 0 38.4 17.6 38.4 38.4v132h132.8c21.6 0 38.4 17.6 38.4 38.4-0.8 21.6-17.6 38.4-39.2 38.4z" />
<glyph unicode="&#xe948;" glyph-name="Send" d="M509.6 920c-259.2 0-469.6-210.4-469.6-469.6s210.4-469.6 469.6-469.6c259.2 0 469.6 210.4 469.6 469.6-0.8 259.2-210.4 469.6-469.6 469.6zM202.4 496c0.8 8 4.8 22.4 29.6 30.4l463.2 154.4c6.4 2.4 12 3.2 17.6 3.2 4 0 7.2-0.8 10.4-1.6l-311.2-311.2c-6.4 4.8-12.8 9.6-18.4 12l-165.6 79.2c-23.2 11.2-26.4 25.6-25.6 33.6zM341.6 228.8h-0.8c-6.4-2.4-12-3.2-17.6-3.2-12 0-21.6 4.8-28 13.6-7.2 9.6-8 24-3.2 39.2v0.8l40 99.2 47.2-22.4c12.8-6.4 32.8-25.6 38.4-38.4l22.4-47.2-98.4-41.6zM744 631.2l-154.4-463.2c-8.8-26.4-25.6-29.6-32-29.6-7.2 0-21.6 3.2-32 25.6l-79.2 165.6c-3.2 5.6-7.2 12-12 18.4l311.2 311.2c2.4-8 2.4-17.6-1.6-28z" />
<glyph unicode="&#xe949;" d="M927.744 115.816c4.096 4.096 6.144 8.6 6.144 14.336s-1.64 11.056-6.144 14.336l-145.818 146.635c-6.144 6.963-13.517 8.602-22.938 4.096-8.602-3.277-12.698-10.24-12.698-19.661v-83.149h-147.456c-6.144 0-10.24-1.638-14.336-6.144s-6.144-9.421-6.144-14.336v-83.146c0-6.144 1.638-10.24 6.144-14.336s9.421-6.144 14.336-6.144h145.818v-83.152c0-9.424 4.096-15.152 12.698-19.664 9.421-3.272 15.974-2.456 22.938 4.096l147.456 146.232z" />
<glyph unicode="&#xe94a;" d="M499.302 204.288h-237.568c-15.155 0-26.214 11.878-26.214 26.214 0 15.155 11.878 26.214 26.214 26.214h259.686c14.336 25.395 33.178 49.152 55.296 68.813h-314.982c-15.155 0-26.214 11.878-26.214 26.214 0 15.155 11.878 26.214 26.214 26.214h336.691c11.878 0 22.118-7.782 24.576-18.842 36.454 20.48 79.053 31.539 123.699 31.539 6.963 0 14.336 0 21.299-0.819v451.379c0.819 49.971-39.731 90.112-89.293 90.112h-498.483c-49.971 0-90.112-39.731-90.112-90.112v-666.829c0-49.971 39.731-90.115 90.112-90.115h312.934c-2.458 15.16-4.096 30.72-4.096 46.696 0 25.808 3.277 50.382 10.24 73.32zM431.309 716.698c68.813 0 114.688-51.61 114.688-129.024 0-56.934-23.757-99.942-64.307-118.784 22.118-4.915 45.056-10.24 62.669-13.517l4.096-0.819-11.878-33.997-3.277 0.819c-33.178 9.421-66.355 18.842-95.027 28.672-4.915 1.638-9.421 3.277-14.336 3.277-56.934 2.458-113.050 43.418-113.050 129.024 0.819 78.234 49.971 134.349 120.422 134.349z" />
<glyph unicode="&#xe94b;" d="M428.852 486.912c52.429 0 75.366 49.971 75.366 98.304 0 46.694-22.938 96.666-74.547 96.666-19.661 0-35.635-6.963-49.152-19.661-18.022-18.022-27.034-46.694-27.034-80.691 0-31.539 9.421-58.573 27.034-76.186 13.517-11.878 30.31-18.432 48.333-18.432z" />
<glyph unicode="&#xe94c;" d="M576.48 910.48c-225.12 37.36-418.16-124.96-419.92-342.48-0.8-96 46.72-177.84 106.080-262.88 78.96-113.12 169.36-242.080 216.8-309.36 3.683-5.296 8.594-9.624 14.313-12.616 5.718-2.984 12.074-4.544 18.527-4.544s12.809 1.56 18.527 4.544c5.718 2.992 10.629 7.32 14.313 12.616 50.48 70.88 131.040 185.92 215.36 310.080 57.040 84 99.92 154.56 105.84 230 14.4 182.32-109.12 344.64-289.84 374.64z" />
<glyph unicode="&#xe94d;" d="M491.68 712v-147.6h214.24v131.6c0 4.243-1.686 8.313-4.686 11.314s-7.070 4.686-11.314 4.686h-198.24z" />
<glyph unicode="&#xe94e;" d="M317.92 590.32v-106.080c0-4.243 1.686-8.313 4.686-11.314s7.070-4.686 11.314-4.686h45.12c3.466-11.926 10.711-22.405 20.643-29.862s22.017-11.487 34.437-11.487c12.42 0 24.504 4.031 34.437 11.487s17.176 17.935 20.643 29.862h43.12c3.466-11.926 10.71-22.405 20.643-29.862s22.017-11.487 34.437-11.487c12.42 0 24.504 4.031 34.437 11.487s17.176 17.935 20.643 29.862h47.12c4.243 0 8.313 1.686 11.314 4.686s4.686 7.070 4.686 11.314v48.56h-230c-4.243 0-8.314 1.686-11.314 4.686s-4.686 7.070-4.686 11.314v140.24h-54.72c-2.344 0.014-4.663-0.488-6.792-1.47s-4.016-2.419-5.528-4.21l-70.72-82.48c-2.513-2.946-3.901-6.687-3.92-10.56zM563.040 479.36c-1.044 5.288-0.359 10.772 1.954 15.641s6.13 8.866 10.888 11.398c4.758 2.533 10.205 3.467 15.535 2.666s10.262-3.295 14.066-7.114c3.803-3.819 6.278-8.761 7.058-14.094s-0.178-10.777-2.73-15.525c-2.552-4.748-6.564-8.549-11.442-10.842s-10.365-2.956-15.649-1.89c-4.866 0.981-9.331 3.382-12.834 6.898s-5.885 7.992-6.846 12.862zM409.28 484.24c-0.603 3.499-0.245 7.097 1.038 10.408s3.44 6.212 6.242 8.392c22.4 16.56 47.12-2.24 42.24-24.4-1.304-6.075-4.82-11.448-9.865-15.075s-11.258-5.25-17.431-4.551c-6.174 0.698-11.868 3.666-15.975 8.329s-6.334 10.685-6.249 16.898z" />
<glyph unicode="&#xe94f;" d="M468.582 269.824h-217.088c-13.517 0-23.757 11.059-23.757 23.757 0 13.517 11.059 23.757 23.757 23.757h236.749c12.698 23.757 29.491 44.237 49.971 61.85h-286.72c-13.517 0-23.757 11.059-23.757 23.757 0 13.517 11.059 23.757 23.757 23.757h306.79c11.059 0 19.661-7.782 22.938-16.794 33.997 18.842 72.090 28.672 112.64 28.672 6.963 0 12.698 0 19.661-0.819v412.058c0.819 45.056-36.454 81.511-81.51 81.511h-454.656c-45.056 0-81.51-36.454-81.51-81.511v-607.027c0-45.056 36.454-81.51 81.51-81.51h285.491c-2.458 13.517-4.096 27.853-4.096 42.598 0.819 22.938 3.277 45.056 9.83 65.946zM406.733 736.358c61.85 0 104.448-47.514 104.448-117.965 0-51.61-22.118-91.75-58.573-108.544 20.48-4.915 41.37-9.421 57.754-11.878l4.096-0.819-11.059-31.539-2.458 0.819c-29.491 8.602-60.211 16.794-86.426 26.214-4.915 1.638-8.602 3.277-12.698 3.277-51.61 1.638-102.4 38.912-102.4 117.965-1.229 71.68 43.008 122.47 107.315 122.47z" />
<glyph unicode="&#xe950;" d="M404.276 527.053c48.333 0 68.813 45.056 68.813 89.702 0 42.598-21.299 88.064-67.994 88.064-17.613 0-32.358-5.734-45.056-17.613-15.974-15.974-24.576-42.598-24.576-72.909 0-27.853 8.602-53.248 24.576-69.632 12.698-11.059 28.262-17.613 44.237-17.613z" />
<glyph unicode="&#xe951;" d="M692.634-35.328c129.622 0 234.702 105.080 234.702 234.701s-105.080 234.701-234.702 234.701c-129.622 0-234.701-105.079-234.701-234.701s105.079-234.701 234.701-234.701z" />
<glyph unicode="&#xe952;" d="M849.512 188.723l-32.36 90.931c-2.456 6.963-10.24 10.24-16.792 8.602l-25.396-9.421c-3.277-0.819-5.734-3.277-7.782-6.963-1.638-3.277-1.638-6.963-0.819-10.24l32.358-90.931c1.639-5.734 6.959-9.421 12.695-9.421 1.64 0 2.456 0 4.096 0.819l25.4 9.421c3.272 0.819 5.728 3.277 7.776 6.963 1.64 3.277 1.64 6.554 0.824 10.24z" />
<glyph unicode="&#xe953;" d="M599.246 147.76c-0.819 0.824-1.638 2.464-2.458 3.28l-19.661 32.358-3.277-2.458c-8.602-6.963-10.24-19.661-4.096-28.669 1.638-2.464 3.277-4.096 5.734-4.92-11.059-11.056-3.277-20.48 0-25.392 3.277-4.096 7.782-7.784 13.517-7.784 0.819 0 1.638 0 2.458 0s0.819 0 1.638 0c0-3.28 1.638-6.96 3.277-10.24 3.277-4.096 7.782-7.784 13.517-7.784 0.819 0 1.638 0 2.458 0 2.458 0 4.915 0.824 7.782 1.64 0.819-2.456 1.638-4.912 3.277-6.96 3.277-4.096 7.782-7.784 13.517-7.784 0.819 0 1.638 0 2.458 0 4.096 0 8.602 1.64 11.878 4.096l3.277 2.456c-1.638 0.816-3.277 2.456-4.915 4.096l-50.381 54.064z" />
<glyph unicode="&#xe954;" d="M679.937 194.458c-4.915-2.458-10.24-3.277-15.974-3.277-2.458 0-5.734 0-8.602 0.819-19.661 4.915-25.395 15.974-27.034 23.757-3.277 18.842 12.698 32.358 17.613 36.454l0.819 0.819 3.277 1.638h0.819c1.638 0.819 5.734 2.458 11.878 4.915l-18.842 11.059 3.277 3.277c4.915 4.915 4.915 13.517 0 18.842l-18.842 19.661c-4.915 4.915-13.517 4.915-18.842 0l-69.632-73.728c-4.915-4.915-4.915-13.517 0-18.842l18.842-19.661c2.458-2.458 5.734-4.096 9.421-4.096 3.277 0 6.963 1.638 9.421 4.096l3.277 3.277 27.853-46.693c0-0.824 0.819-0.824 0.819-0.824l51.61-54.064c3.277-4.096 8.602-5.736 14.336-5.736 4.915 0 10.24 2.456 14.336 5.736 1.638 1.64 3.277 4.096 4.096 6.96 7.782-4.096 17.613-3.272 23.757 3.28 1.638 1.64 3.277 4.096 4.096 6.96 7.782-4.096 17.613-3.272 23.757 3.28 1.638 1.64 3.277 4.096 4.096 6.96l13.517 4.92-66.355 67.992c-4.915-1.638-11.878-4.506-16.794-7.782z" />
<glyph unicode="&#xe955;" d="M753.665 257.126l-45.875 4.915c-4.096 0.819-8.602 0-11.878-1.638-23.757-10.24-38.093-15.974-41.37-16.794l-1.638-0.819c-2.458-1.638-15.155-11.878-12.698-22.938 1.638-6.963 7.782-11.878 17.613-13.517 4.915-0.819 10.24-0.819 15.155 1.638 8.602 4.096 21.299 9.421 27.034 10.24l63.488-67.99 23.757 12.694c-0.819 0.819-0.819 2.458-1.638 4.096l-31.949 90.112z" />
<glyph unicode="&#xe956;" d="M730.317 32.256c124.643 0 225.691 101.048 225.691 225.69 0 124.645-101.048 225.69-225.691 225.69-124.645 0-225.69-101.045-225.69-225.69 0-124.642 101.045-225.69 225.69-225.69z" />
<glyph unicode="&#xe957;" d="M504.218 257.946c0 71.27 33.178 137.626 90.112 180.634l-67.994 72.090c-18.022-6.963-35.635-13.517-53.658-22.118-22.938-11.878-49.971-14.336-74.547-8.602-60.211 14.336-79.053 48.333-84.787 74.547-11.878 57.344 38.093 100.352 53.658 112.23l2.458 1.638 10.24 6.144 2.458 0.819c4.096 1.638 16.794 6.963 35.635 14.336l-58.573 32.358 11.059 11.878c15.155 15.974 15.155 41.779 0 57.754l-57.754 60.211c-15.974 15.974-41.779 15.974-57.754 0.819 0 0 0 0-0.819-0.819l-213.811-227.328c-15.155-15.974-15.155-41.779 0-57.754l56.934-61.030c15.155-15.974 40.55-16.794 56.934-0.819l0.819 0.819 10.24 11.059 86.426-144.179c0.819-1.638 1.638-2.458 2.458-3.277l157.696-167.117c22.118-23.757 60.211-25.395 83.968-2.458 0.819 0.819 1.638 1.638 2.458 2.458 3.277 3.277 6.144 6.963 8.602 11.059-1.229 14.746-2.458 29.082-2.458 44.646z" />
<glyph unicode="&#xe958;" d="M390.758 633.139c-7.782-6.144-45.875-36.454-38.093-71.27 4.096-21.299 22.938-34.816 54.477-43.418 15.974-4.096 33.178-1.638 48.333 4.915 27.034 12.698 54.477 23.757 83.149 32.358l90.931-96.666c31.539 15.974 66.355 23.757 101.171 23.757 14.336 0 28.672-1.638 42.598-4.096l-72.909 198.246-139.264 15.974c-12.698 1.638-24.576 0-36.454-4.915-72.090-30.72-117.146-49.152-128.205-53.658l-5.734-1.229z" />
<glyph unicode="&#xe959;" d="M993.28 469.299l-100.352 279.347c-7.784 21.299-30.72 32.358-52.432 25.395l-78.23-27.034c-10.241-3.277-18.842-11.059-22.938-21.299-4.915-10.24-4.915-21.299-1.638-31.539l81.51-228.147c34.816-15.155 66.352-38.912 89.296-69.632l59.392 21.299c10.24 3.277 18.84 11.059 22.936 21.299 4.912 9.011 5.736 20.070 2.456 30.31z" />
<glyph unicode="&#xe95a;" d="M800.768 371.405h-133.939c-13.517 0-23.757-11.059-23.757-23.757v-178.995c0-13.517 11.059-23.757 23.757-23.757h133.939c13.52 0 23.76 11.056 23.76 23.757v178.995c0 13.517-11.064 23.757-23.76 23.757zM734.413 314.47c18.842 0 30.72-13.517 30.72-34.816 0-15.155-6.963-27.034-16.794-32.358 6.144-1.638 11.878-2.458 16.794-3.277h0.819l-3.277-9.421h-0.819c-8.602 2.458-18.022 4.915-25.395 7.782-1.638 0-2.458 0.819-3.277 0.819-15.155 0.819-30.72 11.878-30.72 34.816-0.41 21.299 12.288 36.454 31.949 36.454zM778.65 177.254h-90.112c-4.096 0-6.963 3.277-6.963 6.963 0 4.096 3.277 6.963 6.963 6.963h90.112c4.096 0 6.963-3.277 6.963-6.963 0.41-3.686-2.867-6.963-6.963-6.963zM778.65 209.613h-90.112c-4.096 0-6.963 3.277-6.963 6.963 0 4.096 3.277 6.963 6.963 6.963h90.112c4.096 0 6.963-3.277 6.963-6.963 0.41-3.686-2.867-6.963-6.963-6.963z" />
<glyph unicode="&#xe95b;" d="M733.594 252.621c14.336 0 20.48 13.517 20.48 26.214s-6.144 25.395-19.661 25.395c-4.915 0-9.421-1.638-12.698-4.915-6.144-4.096-8.602-11.878-8.602-21.299 0-8.602 2.458-15.974 7.782-20.48 3.277-3.277 7.782-4.915 12.698-4.915z" />
<glyph unicode="&#xe95c;" glyph-name="Unlinked" d="M509.6 920c-259.2 0-469.6-210.4-469.6-469.6s210.4-469.6 469.6-469.6c259.2 0 469.6 210.4 469.6 469.6-0.8 259.2-210.4 469.6-469.6 469.6zM496 264l-57.6-65.6c-22.4-25.6-54.4-38.4-85.6-38.4-27.2 0-53.6 9.6-75.2 28.8l-20 17.6c-48 41.6-52 114.4-10.4 161.6l108.8 122.4 56-56-105.6-119.2c-12.8-14.4-11.2-36.8 3.2-49.6l20-17.6c14.4-12.8 36.8-11.2 49.6 3.2l57.6 65.6c12.8 14.4 36 16 50.4 3.2l5.6-4.8c15.2-14.4 16.8-36.8 3.2-51.2zM672.8 287.2c-8-8-18.4-12.8-30.4-12.8s-22.4 4.8-30.4 12.8l-266.4 266.4c-16.8 16.8-16.8 44 0 60 8 8 18.4 12.8 30.4 12.8s22.4-4.8 30.4-12.8l266.4-266.4c16.8-16 16.8-43.2 0-60zM771.2 533.6l-108.8-122.4-56 56 105.6 118.4c12.8 14.4 11.2 36.8-3.2 49.6l-20 17.6c-14.4 12.8-36.8 11.2-49.6-3.2l-57.6-65.6c-12.8-14.4-36-16-50.4-3.2l-5.6 4.8c-14.4 12.8-16 36-3.2 50.4l57.6 65.6c41.6 47.2 113.6 51.2 160.8 9.6l20-17.6c48-40.8 52-112.8 10.4-160z" />
<glyph unicode="&#xe95d;" d="M730.317 31.848c124.643 0 225.691 101.040 225.691 225.688 0 124.645-101.048 225.69-225.691 225.69-124.645 0-225.69-101.045-225.69-225.69 0-124.648 101.045-225.688 225.69-225.688z" />
<glyph unicode="&#xe95e;" d="M504.218 257.536c0 70.451 33.178 137.626 89.293 180.634l-67.994 72.090c-18.022-6.963-35.635-13.517-53.658-22.118-22.938-11.878-49.971-14.336-74.547-8.602-60.211 14.336-79.053 48.333-84.787 74.547-11.878 57.754 38.093 100.762 53.658 112.64l2.458 1.638 10.24 6.144 2.458 0.819c4.096 1.638 16.794 6.963 35.635 14.336l-57.754 32.358 11.059 11.878c15.155 15.974 15.155 41.779 0 57.754l-57.754 60.211c-15.974 15.974-41.779 15.974-57.754 0.819 0 0 0 0-0.819-0.819l-213.811-227.328c-15.155-15.974-15.155-41.779 0-57.754l56.934-61.030c15.155-15.974 40.55-16.794 56.934-0.819l0.819 0.819 10.24 11.059 86.426-144.179c0.819-1.638 1.638-2.458 2.458-3.277l157.696-167.117c22.118-23.757 60.211-25.395 83.968-2.458 0.819 0.819 1.638 1.638 2.458 2.458 3.277 3.277 6.144 6.963 8.602 11.059-1.638 14.746-2.458 29.082-2.458 44.237z" />
<glyph unicode="&#xe95f;" d="M390.758 632.73c-7.782-6.144-45.875-36.454-38.093-71.27 4.096-21.299 22.938-35.635 54.477-43.418 15.974-4.096 33.178-1.638 48.333 4.915 26.214 12.698 54.477 23.757 83.149 32.358l91.75-96.666c31.539 15.974 66.355 23.757 101.171 23.757 14.336 0 27.853-1.638 41.779-4.096l-71.27 198.656-140.902 15.974c-12.698 1.638-24.576 0-36.454-4.915-72.090-30.72-117.965-49.152-128.205-53.658l-5.734-1.638z" />
<glyph unicode="&#xe960;" d="M993.28 468.89l-100.352 279.347c-7.784 21.299-30.72 32.358-52.432 25.395l-78.23-27.034c-10.24-3.277-18.842-11.059-22.938-21.299-4.915-10.24-4.915-21.299-1.638-31.539l82.326-228.147c34.816-15.155 66.36-38.912 89.296-69.632l59.392 21.299c10.24 3.277 18.84 11.059 22.936 21.299 4.096 9.421 4.92 20.48 1.64 30.31z" />
<glyph unicode="&#xe961;" d="M730.317 389.427l-0.819 26.214-52.429-48.333 52.429-48.333v27.853h0.819c49.152 0 89.291-39.731 88.067-89.293 0-21.299-7.784-41.779-21.302-56.934l31.542-28.672c47.512 54.477 42.592 137.626-11.88 185.139-23.758 21.299-55.298 32.358-86.427 32.358z" />
<glyph unicode="&#xe962;" d="M729.088 169.472c-49.152 0-88.064 39.731-88.064 89.293 0 20.48 7.782 40.55 20.48 56.115l-32.358 27.034c-45.875-56.115-38.093-138.445 18.022-185.138 22.938-19.664 52.429-29.904 82.33-29.904v-26.216l52.429 47.52-52.838 47.51v-26.214z" />
<glyph unicode="&#xe963;" glyph-name="Updated" d="M508-16.8c-257.6 0-468 210.4-468 468.8 0 257.6 210.4 468 468 468 188 0 356.8-111.2 430.4-284 8.8-20-0.8-44-20.8-52.8s-44 0.8-52.8 20.8c-60.8 143.2-200.8 236-356.8 236-213.6 0-388-174.4-388-388s174.4-388 388-388c213.6 0 388 174.4 388 388 0 22.4 17.6 40 40 40s40-17.6 40-40c0.8-258.4-209.6-468.8-468-468.8zM909.6 574.4c-3.2 0-5.6 0-8.8 0.8l-156.8 36c-21.6 4.8-35.2 26.4-30.4 48s26.4 35.2 48 30.4l120-27.2 31.2 111.2c6.4 21.6 28 33.6 49.6 27.2s33.6-28 27.2-49.6l-41.6-147.2c-4.8-17.6-20.8-29.6-38.4-29.6zM412 252c-11.2 0-22.4 4.8-30.4 14.4-14.4 16.8-12 42.4 4.8 56l96.8 82.4v228.8c0 22.4 17.6 40 40 40s40-17.6 40-40v-246.4c0-12-4.8-23.2-14.4-30.4l-110.4-95.2c-8-6.4-16.8-9.6-26.4-9.6z" />
<glyph unicode="&#xe964;" d="M730.317 31.848c124.643 0 225.691 101.040 225.691 225.688 0 124.645-101.048 225.69-225.691 225.69-124.645 0-225.69-101.045-225.69-225.69 0-124.648 101.045-225.688 225.69-225.688z" />
<glyph unicode="&#xe965;" d="M504.218 257.536c0 70.451 33.178 137.626 89.293 180.634l-67.994 72.090c-18.022-6.963-35.635-13.517-53.658-22.118-22.938-11.878-49.971-14.336-74.547-8.602-60.211 14.336-79.053 48.333-84.787 74.547-11.878 57.754 38.093 100.762 53.658 112.64l2.458 1.638 10.24 6.144 2.458 0.819c4.096 1.638 16.794 6.963 35.635 14.336l-57.754 32.358 11.059 11.878c15.155 15.974 15.155 41.779 0 57.754l-57.754 60.211c-15.974 15.974-41.779 15.974-57.754 0.819 0 0 0 0-0.819-0.819l-213.812-227.328c-15.155-15.974-15.155-41.779 0-57.754l56.935-61.030c15.155-15.974 40.55-16.794 56.934-0.819l0.819 0.819 10.24 11.059 86.426-144.179c0.819-1.638 1.638-2.458 2.458-3.277l157.696-167.117c22.118-23.757 60.211-25.395 83.968-2.458 0.819 0.819 1.638 1.638 2.458 2.458 3.277 3.277 6.144 6.963 8.602 11.059-1.638 14.746-2.458 29.082-2.458 44.237z" />
<glyph unicode="&#xe966;" d="M390.758 632.73c-7.782-6.144-45.875-36.454-38.093-71.27 4.096-21.299 22.938-35.635 54.477-43.418 15.974-4.096 33.178-1.638 48.333 4.915 26.214 12.698 54.477 23.757 83.149 32.358l91.75-96.666c31.539 15.974 66.355 23.757 101.171 23.757 14.336 0 27.853-1.638 41.779-4.096l-71.27 198.656-140.902 15.974c-12.698 1.638-24.576 0-36.454-4.915-72.090-30.72-117.965-49.152-128.205-53.658l-5.734-1.638z" />
<glyph unicode="&#xe967;" d="M993.28 468.89l-100.352 279.347c-7.784 21.299-30.72 32.358-52.432 25.395l-78.23-27.034c-10.24-3.277-18.842-11.059-22.938-21.299-4.915-10.24-4.915-21.299-1.638-31.539l82.326-228.147c34.816-15.155 66.36-38.912 89.296-69.632l59.392 21.299c10.24 3.277 18.84 11.059 22.936 21.299 4.096 9.421 4.92 20.48 1.64 30.31z" />
<glyph unicode="&#xe968;" d="M750.388 259.584c0 6.144-2.458 11.878-6.963 15.974l-85.606 85.606c-9.421 9.421-23.757 9.421-32.358 0s-9.421-23.757 0-32.358l68.813-68.813-68.813-68.813c-9.421-9.421-9.421-23.757 0-32.357 4.096-4.096 10.24-6.968 15.974-6.968 6.144 0 11.878 2.464 15.974 6.968l85.606 85.605c4.915 3.277 7.373 9.011 7.373 15.155z" />
<glyph unicode="&#xe969;" d="M852.376 275.558l-84.785 85.606c-9.421 9.421-23.757 9.421-32.358 0s-9.421-23.757 0-32.358l68.815-68.813-68.815-68.813c-9.421-9.421-9.421-23.757 0-32.357 4.096-4.096 10.24-6.968 15.974-6.968 6.144 0 11.878 2.464 15.974 6.968l84.786 85.605c9.008 7.373 9.008 21.709 0.408 31.13-0.816 0-0.816 0 0 0z" />
<glyph unicode="&#xe96a;" d="M730.317 31.848c124.643 0 225.691 101.040 225.691 225.688 0 124.645-101.048 225.69-225.691 225.69-124.645 0-225.69-101.045-225.69-225.69 0-124.648 101.045-225.688 225.69-225.688z" />
<glyph unicode="&#xe96b;" d="M504.218 257.536c0 70.451 33.178 137.626 89.293 180.634l-67.994 72.090c-18.022-6.963-35.635-13.517-53.658-22.118-22.938-11.878-49.971-14.336-74.547-8.602-60.211 14.336-79.872 48.333-84.787 74.547-11.878 57.754 38.093 100.762 53.658 112.64l2.458 1.638 10.24 6.144 2.458 0.819c4.096 1.638 16.794 6.963 35.635 14.336l-57.754 32.358 11.059 11.878c15.155 15.974 15.155 41.779 0 57.754l-57.754 60.211c-15.974 15.974-41.779 15.974-57.754 0.819 0 0 0 0-0.819-0.819l-213.811-227.328c-15.155-15.974-15.155-41.779 0-57.754l56.934-61.030c15.155-15.974 40.55-16.794 56.934-1.638 0.819 0.819 0.819 0.819 1.638 1.638l10.24 11.059 86.426-144.179c0.819-1.638 1.638-2.458 2.458-3.277l158.515-167.117c22.118-23.757 59.392-25.395 83.149-3.277 0.819 0.819 2.458 1.638 3.277 3.277 3.277 3.277 6.144 6.963 8.602 11.059-2.867 14.746-4.096 29.082-4.096 44.237z" />
<glyph unicode="&#xe96c;" d="M390.758 632.73c-7.782-6.144-45.875-36.454-38.093-71.27 4.096-21.299 22.118-34.816 54.477-43.418 15.974-4.096 33.178-1.638 48.333 4.915 26.214 12.698 54.477 23.757 82.33 32.358l91.75-96.666c31.539 15.974 66.355 23.757 101.171 23.757 14.336 0 28.672-1.638 42.598-4.096l-72.909 198.656-140.083 15.974c-12.698 1.638-24.576 0-36.454-4.915-72.090-30.72-117.965-49.152-128.205-53.658l-4.915-1.638z" />
<glyph unicode="&#xe96d;" d="M993.28 468.89l-100.352 279.347c-7.784 21.299-30.72 32.358-52.432 25.395l-78.23-27.034c-10.24-3.277-18.842-11.059-22.938-21.299-4.915-10.24-4.915-21.299-1.638-31.539l81.51-228.147c35.632-15.155 66.352-38.912 89.296-69.632l59.392 21.299c10.24 3.277 18.84 11.059 22.936 21.299 4.912 9.421 5.736 20.48 2.456 30.31z" />
<glyph unicode="&#xe96e;" d="M690.995 231.322l-43.008 43.418-31.539-32.358 74.547-77.005 152.781 152.781-31.128 31.949-121.653-118.784z" />
<glyph unicode="&#xe96f;" glyph-name="Won" d="M512 920c-185.6 0-336-150.4-336-336s150.4-336 336-336c185.6 0 336 150.4 336 336s-150.4 336-336 336zM669.6 657.6l-194.4-196c-14.4-14.4-37.6-14.4-51.2 0.8l-70.4 73.6c-13.6 13.6-13.6 35.2 0 49.6l0.8 0.8c14.4 14.4 37.6 15.2 52 0l43.2-44 170.4 166.4c14.4 13.6 36.8 13.6 50.4-0.8s13.6-36.8-0.8-50.4zM324 233.6v-224c0-21.6 24-34.4 41.6-22.4l146.4 97.6 146.4-97.6c17.6-12 41.6 0.8 41.6 22.4v224c-56-29.6-120-47.2-188-47.2s-132 17.6-188 47.2z" />
</font>
</defs>
</svg>
