<svg width="128" height="128" viewBox="0 0 128 128" fill="none" xmlns="http://www.w3.org/2000/svg">
<path d="M127 64C127 29.21 98.79 1 64 1C29.21 1 1 29.21 1 64C1 95.45 24.04 121.51 54.16 126.23V82.21H38.16V64H54.16V50.12C54.16 34.33 63.57 25.61 77.96 25.61C84.85 25.61 92.06 26.84 92.06 26.84V42.34H84.12C76.29 42.34 73.85 47.2 73.85 52.18V64H91.32L88.53 82.21H73.84V126.23C103.96 121.51 127 95.45 127 64Z" fill="#1877F2"/>
<path d="M88.52 82.2104L91.32 64.0004H73.84V52.1804C73.84 47.2004 76.28 42.3404 84.11 42.3404H92.05V26.8404C92.05 26.8404 84.84 25.6104 77.95 25.6104C63.56 25.6104 54.15 34.3303 54.15 50.1203V64.0004H38.15V82.2104H54.15V126.23C57.36 126.73 60.64 127 63.99 127C67.34 127 70.63 126.74 73.83 126.23V82.2104H88.52Z" fill="white"/>
</svg>
