<svg width="128" height="128" viewBox="0 0 128 128" fill="none" xmlns="http://www.w3.org/2000/svg">
<g clip-path="url(#clip0)">
<path d="M83.51 79.4296C82.19 80.7896 80.38 81.5496 78.49 81.5496C76.61 81.5296 74.81 80.7696 73.5 79.4296L61.86 67.6696L40.7 88.5096C39.38 89.8196 37.61 90.5796 35.75 90.6296C33.86 90.6196 32.06 89.8496 30.73 88.5096C27.96 85.7796 27.93 81.3096 30.66 78.5396C30.68 78.5196 30.7 78.4996 30.73 78.4696L56.97 52.6996C59.7 49.9696 64.12 49.9696 66.85 52.6896C66.85 52.6896 66.85 52.6896 66.86 52.6996L78.5 64.3896L115.43 27.6096C95.32 -0.790363 56.01 -7.52037 27.61 12.5796C-0.789997 32.6796 -7.52 71.9996 12.58 100.4C32.68 128.8 72 135.52 100.4 115.42C117.15 103.56 127.08 84.2896 127 63.7696C127 55.7896 125.45 47.8796 122.43 40.4896L83.51 79.4296Z" fill="#2898CB"/>
</g>
<defs>
<clipPath id="clip0">
<rect width="126" height="126.01" fill="white" transform="translate(1 1)"/>
</clipPath>
</defs>
</svg>
