<svg width="128" height="128" viewBox="0 0 128 128" fill="none" xmlns="http://www.w3.org/2000/svg">
<path d="M64 127C29.2074 127 1 98.7926 1 64C1 29.2074 29.2074 1 64 1C98.7926 1 127 29.2074 127 64C127 98.7926 98.7926 127 64 127Z" fill="#00B900"/>
<path d="M101.999 61.0917C101.999 44.3434 85.2124 30.7178 64.5752 30.7178C43.938 30.7178 27.1509 44.3434 27.1509 61.0917C27.1509 76.1041 40.4661 88.6823 58.4558 91.0583C59.6777 91.3201 61.3361 91.8632 61.7531 92.9009C62.1313 93.8513 61.9955 95.3254 61.8695 96.2855C61.8695 96.2855 61.433 98.9233 61.3361 99.4858C61.1712 100.436 60.5796 103.19 64.5752 101.503C68.5707 99.8155 86.1337 88.8083 93.9793 79.7699C99.4004 73.8251 101.999 67.7929 101.999 61.0917Z" fill="white"/>
<path d="M56.9717 52.9932H54.3436C53.9459 52.9932 53.6162 53.3229 53.6162 53.7205V70.0324C53.6162 70.43 53.9459 70.7598 54.3436 70.7598H56.9717C57.3693 70.7598 57.699 70.43 57.699 70.0324V53.7205C57.699 53.3229 57.3693 52.9932 56.9717 52.9932Z" fill="#00B900"/>
<path d="M75.0394 52.9932H72.4113C72.004 52.9932 71.6839 53.3229 71.6839 53.7205V63.4087L64.2068 53.3132C64.1874 53.2841 64.168 53.2647 64.1486 53.2356C64.1389 53.2162 64.1195 53.2065 64.1001 53.1871L64.0904 53.1774C64.0808 53.1677 64.0614 53.158 64.0517 53.1483C64.042 53.1386 64.042 53.1386 64.0323 53.1289C64.0226 53.1192 64.0032 53.1095 63.9935 53.0998C63.9838 53.0998 63.9838 53.0901 63.9741 53.0901C63.9644 53.0804 63.945 53.0707 63.9353 53.0707C63.9256 53.0707 63.9159 53.061 63.9159 53.061C63.9062 53.0514 63.8868 53.0514 63.8771 53.0417C63.8674 53.0417 63.8577 53.032 63.8577 53.032C63.848 53.0223 63.8286 53.0223 63.8189 53.0223C63.8092 53.0223 63.7995 53.0223 63.7898 53.0126C63.7801 53.0126 63.7607 53.0029 63.751 53.0029C63.7413 53.0029 63.7316 53.0029 63.7219 53.0029C63.7122 53.0029 63.6928 53.0029 63.6831 53.0029C63.6734 53.0029 63.654 53.0029 63.6443 53.0029C63.6346 53.0029 63.6249 53.0029 63.6152 53.0029H60.9871C60.5895 53.0029 60.2598 53.3326 60.2598 53.7302V70.0421C60.2598 70.4397 60.5895 70.7695 60.9871 70.7695H63.6152C64.0226 70.7695 64.3426 70.4397 64.3426 70.0421V60.3539L71.8294 70.4591C71.8779 70.527 71.9458 70.5949 72.0137 70.6434C72.0137 70.6434 72.0234 70.6434 72.0234 70.6531C72.0427 70.6628 72.0524 70.6725 72.0718 70.6822C72.0815 70.6822 72.0815 70.6919 72.0912 70.6919C72.1009 70.7016 72.1106 70.7016 72.13 70.7113C72.1397 70.7113 72.1494 70.721 72.1688 70.7307C72.1785 70.7307 72.1785 70.7404 72.1882 70.7404C72.2076 70.7501 72.2173 70.7501 72.2367 70.7598H72.2464C72.3046 70.7792 72.3725 70.7889 72.4307 70.7889H75.0588C75.4661 70.7889 75.7861 70.4591 75.7861 70.0615V53.7205C75.7668 53.3229 75.437 52.9932 75.0394 52.9932Z" fill="#00B900"/>
<path d="M50.639 66.6769H43.5013V53.7205C43.5013 53.3229 43.1716 52.9932 42.7739 52.9932H40.1458C39.7482 52.9932 39.4185 53.3229 39.4185 53.7205V70.0227C39.4185 70.2167 39.496 70.3912 39.6221 70.527L39.6318 70.5367L39.6415 70.5464C39.7773 70.6725 39.9518 70.7501 40.1458 70.7501H50.6293C51.0269 70.7501 51.3566 70.4203 51.3566 70.0227V67.3946C51.3663 67.0067 51.0463 66.6769 50.639 66.6769Z" fill="#00B900"/>
<path d="M89.5376 57.076C89.9353 57.076 90.265 56.7463 90.265 56.3486V53.7205C90.265 53.3132 89.9353 52.9932 89.5376 52.9932H79.0445C78.8505 52.9932 78.6663 53.0707 78.5402 53.1968L78.5305 53.2065L78.5208 53.2162C78.3947 53.352 78.3171 53.5266 78.3171 53.7205V70.0227C78.3171 70.2167 78.3947 70.3912 78.5208 70.527L78.5305 70.5367L78.5402 70.5464C78.6663 70.6725 78.8505 70.7501 79.0445 70.7501H89.5279C89.9256 70.7501 90.2553 70.4203 90.2553 70.0227V67.3946C90.2553 66.997 89.9256 66.6672 89.5279 66.6672H82.3903V63.913H89.5279C89.9256 63.913 90.2553 63.5833 90.2553 63.1857V60.5672C90.2553 60.1599 89.9256 59.8399 89.5279 59.8399H82.3903V57.076H89.5376Z" fill="#00B900"/>
</svg>
