<?xml version="1.0" standalone="no"?>
<!DOCTYPE svg PUBLIC "-//W3C//DTD SVG 1.1//EN" "http://www.w3.org/Graphics/SVG/1.1/DTD/svg11.dtd" >
<svg xmlns="http://www.w3.org/2000/svg">
<metadata>Generated by IcoMoon</metadata>
<defs>
<font id="form" horiz-adv-x="1024">
<font-face units-per-em="1024" ascent="960" descent="-64" />
<missing-glyph horiz-adv-x="1024" />
<glyph unicode="&#x20;" horiz-adv-x="512" d="" />
<glyph unicode="&#xe900;" glyph-name="Checked" d="M465.601 20c-103.2 0-206.4 37.6-288.8 112.8-172.8 159.2-184 429.6-24.8 601.6 116 125.6 295.2 170.4 456 112.8 20.8-7.2 32-30.4 24.8-52-7.2-20.8-30.4-32-52-24.8-130.4 46.4-275.2 10.4-368.8-91.2-128.8-139.2-119.2-358.4 20-487.2 140-128.8 358.4-120 487.2 20 46.4 50.4 76 112 87.199 179.2 3.2 22.4 24 37.6 46.4 33.6 22.4-3.2 37.6-24 33.6-46.4-12.8-83.2-50.4-160-107.199-221.6-84-90.4-198.4-136.8-313.6-136.8zM528.801 328.8c-15.2 0-28.8 5.6-39.2 16.8l-142.4 148.8c-20 20.8-20 53.6 0 74.4l1.6 1.6c10.4 11.2 24 16.8 39.2 16.8 14.4 0 28.8-5.6 39.2-16l100.8-103.2 359.199 351.2c10.4 9.6 24 15.2 37.6 15.2 14.4 0 28-5.6 38.4-16 20.8-20.8 20.8-55.2 0-76l-395.999-397.6c-10.4-10.4-24-16-38.4-16z" />
<glyph unicode="&#xe901;" glyph-name="Dragdrop" d="M332 704c59.646 0 108 48.354 108 108s-48.354 108-108 108c-59.646 0-108-48.354-108-108s48.354-108 108-108zM693.6 704c59.646 0 108 48.354 108 108s-48.354 108-108 108c-59.647 0-108-48.354-108-108s48.353-108 108-108zM332 342.4c59.646 0 108 48.354 108 108s-48.354 108-108 108c-59.646 0-108-48.354-108-108s48.354-108 108-108zM693.6 342.4c59.646 0 108 48.354 108 108s-48.354 108-108 108c-59.647 0-108-48.354-108-108s48.353-108 108-108zM332-18.4c59.646 0 108 48.352 108 108s-48.354 108-108 108c-59.646 0-108-48.352-108-108s48.354-108 108-108zM693.6-18.4c59.646 0 108 48.352 108 108s-48.354 108-108 108c-59.647 0-108-48.352-108-108s48.353-108 108-108z" />
<glyph unicode="&#xe902;" glyph-name="Duplicate" d="M276.8-18.4c-73.6 0-132.8 63.2-132.8 140.8v505.6c0 77.6 59.2 140.8 132.8 140.8h336.8c73.6 0 132.8-63.2 132.8-140.8v-505.6c0-77.6-59.2-140.8-132.8-140.8h-336.8zM276.8 710.4c-43.2 0-78.4-36.8-78.4-82.4v-505.6c0-45.6 35.2-82.4 78.4-82.4h336.8c43.2 0 78.4 36.8 78.4 82.4v505.6c0 45.6-35.2 82.4-78.4 82.4h-336.8zM860 186.4c-15.2 0-27.2 12.8-27.2 28.8v564c0 45.6-35.2 82.4-78.4 82.4h-391.2c-15.2 0-27.2 12.8-27.2 28.8s12 29.6 27.2 29.6h391.2c73.6 0 132.8-63.2 132.8-140.8v-563.2c0-16.8-12.8-29.6-27.2-29.6z" />
<glyph unicode="&#xe903;" glyph-name="Form-Add-Section" d="M837.6 562.4h-709.6c-48 0-88 42.4-88 95.2v159.2c0 52.8 39.2 95.2 88 95.2h710.4c48 0 88-42.4 88-95.2v-159.2c-0.8-52.8-40-95.2-88.8-95.2zM128 850.4c-16.8 0-30.4-15.2-30.4-33.6v-159.2c0-18.4 13.6-33.6 30.4-33.6h710.4c16.8 0 30.4 15.2 30.4 33.6v159.2c0 18.4-13.6 33.6-30.4 33.6h-710.4zM395.2 211.2h-267.2c-16.8 0-30.4 15.2-30.4 33.6v159.2c0 18.4 13.6 33.6 30.4 33.6h342.4c19.2 23.2 41.6 44 66.4 61.6h-408.8c-48 0-88-42.4-88-95.2v-159.2c0-52.8 39.2-95.2 88-95.2h276.8c-5.6 20-8.8 40.8-9.6 61.6zM726.4-24c-138.4 0-250.4 112-250.4 250.4s112 250.4 250.4 250.4c138.4 0 250.4-112 250.4-250.4s-112-250.4-250.4-250.4zM726.4 418.4c-106.4 0-192-86.4-192-192s86.4-192 192-192c105.6 0 192 86.4 192 192s-85.6 192-192 192zM824.8 197.6h-196.801c-16 0-28.8 12.8-28.8 28.8s12.8 28.8 28.8 28.8h196.001c16 0 28.8-12.8 28.8-28.8s-12-28.8-28-28.8zM726.4 99.2c-16 0-28.8 12.8-28.8 28.8v196c0 16 12.8 28.8 28.8 28.8s28.8-12.8 28.8-28.8v-196c0-16-12.8-28.8-28.8-28.8z" />
<glyph unicode="&#xe904;" glyph-name="Form-Attachment" d="M778.096 785.705c-98.4 82.4-244.8 69.6-328-28.8l-283.2-337.6c-10.4-12-8.8-29.6 3.2-40s29.6-8.8 40 3.2l283.2 337.6c63.2 73.6 174.4 81.6 248 17.6 72-62.4 80.8-170.4 21.6-244l-292-348.001c-40.8-48-112.8-54.4-160.8-14.4 0 0-0.799 0-1.6 0.8l-0.8 0.8c-48 40.801-54.4 112.801-14.4 160.801l175.2 208.8c20 23.2 55.2 26.4 78.4 7.2s26.4-55.2 7.2-78.4l-166.4-198.4c-10.4-12-8.8-29.6 3.2-40s29.6-8.8 40 3.2l166.4 198.4c40 47.2 33.6 118.4-13.6 158.4s-118.4 35.2-158.4-12l-175.2-208.8c-60.8-72.8-51.2-180.001 20.8-241.601 0 0 0.801 0 1.601-0.8 0.8 0 0.799-0.8 0.799-0.8 72.8-60.8 180-51.2 241.6 20.8l291.2 348.001c82.4 98.4 70.4 244.8-28 328z" />
<glyph unicode="&#xe905;" glyph-name="Form-Checklist" d="M509.6 872c232 0 421.6-188.8 421.6-421.6s-188.8-421.6-421.6-421.6c-232.8 0.8-421.6 189.6-421.6 421.6s188.8 421.6 421.6 421.6zM509.6 920c-259.2 0-469.6-210.4-469.6-469.6s210.4-469.6 469.6-469.6c259.2 0 469.6 210.4 469.6 469.6s-210.4 469.6-469.6 469.6zM430.4 296.8c-8 0-16.001 3.2-21.601 8.8l-88.799 93.6c-11.2 11.2-11.2 29.6 0 40.8l0.799 0.8c5.6 5.6 12.801 8.8 21.601 8.8 8 0 15.2-3.2 20.8-8.8l65.599-67.2 227.201 222.4c5.6 5.6 12.799 8 20.799 8s15.2-3.2 20.8-8.8c11.2-11.2 11.2-30.4 0-41.6l-247.2-248c-4.8-5.6-11.999-8.8-19.999-8.8z" />
<glyph unicode="&#xe906;" d="M761.613 359.518c-13.966 15.363-33.52 24.442-55.867 24.442-22.346 0.698-41.9-7.682-57.263-22.346-15.363-15.363-24.442-34.218-24.442-55.867-0.698-22.346 7.682-42.598 22.346-57.263 13.966-15.363 34.218-24.442 55.867-24.442 22.346-0.698 42.598 7.682 57.263 22.346 15.363 13.966 24.442 33.52 24.442 55.867 0.698 23.045-7.682 42.598-22.346 57.263zM751.138 255.466c-12.57-12.57-28.632-18.855-48.883-18.855s-35.615 7.682-46.789 20.95c-12.57 12.57-18.855 28.632-18.855 48.883 0.698 18.855 8.38 35.615 20.95 46.789 11.871 12.57 28.632 18.855 48.883 18.855 18.855-0.698 35.615-8.38 46.789-20.95 12.57-11.871 18.855-28.632 18.855-48.883-1.397-18.157-8.38-35.615-20.95-46.789z" />
<glyph unicode="&#xe907;" d="M705.746 349.042h-1.397c-4.888 0-8.38-4.19-8.38-8.38v-27.934h-27.934c-4.888 0-8.38-4.19-8.38-8.38v-0.698c0-4.888 4.19-8.38 8.38-8.38h27.934v-27.933c0-4.889 4.19-8.38 8.38-8.38 4.889 0 8.38 4.19 8.38 8.38v27.933h27.934c4.889 0 8.38 4.19 8.38 8.38 0 4.889-4.19 8.381-8.38 8.381h-27.934c0.698 10.474 0.698 20.251 0.698 29.33 0.698 4.19-3.491 7.682-7.682 7.682z" />
<glyph unicode="&#xe908;" d="M752.802 510.4c-15.2 0-27.2 12-27.2 27.2s12 27.2 27.2 27.2c15.2 0 27.2-12 27.2-27.2s-12-27.2-27.2-27.2z" />
<glyph unicode="&#xe909;" d="M180-17.6c-76.8 0-140 62.4-140 140v584c0 76.8 62.4 140 140 140h56.8v46.4c0 15.2 12 27.2 27.2 27.2s27.2-12 27.2-27.2v-47.2h188.8v47.2c0 15.2 12 27.2 27.2 27.2s27.2-12 27.2-27.2v-47.2h190.4v47.2c0 15.2 12 27.2 27.2 27.2s27.2-12 27.2-27.2v-47.2h58.4c76.8 0 140-62.4 140-140v-213.6c0-15.2-12-27.2-27.2-27.2s-27.2 12-27.2 27.2v213.6c0 46.4-38.4 84.8-84.8 84.8h-58.4v-47.2c0-15.2-12-27.2-27.2-27.2s-27.2 12-27.2 27.2v47.2h-190.4v-47.2c0-15.2-12-27.2-27.2-27.2s-27.2 12-27.2 27.2v47.2h-188v-47.2c0-15.2-12-27.2-27.2-27.2s-27.2 12-27.2 27.2v47.2h-56.8c-46.4 0-84.8-38.4-84.8-84.8v-584c0-46.4 38.4-84.8 84.8-84.8h286.4c15.2 0 27.2-12 27.2-27.2s-12-27.2-27.2-27.2h-288z" />
<glyph unicode="&#xe90a;" d="M761.601-17.6c-119.2 0-216.8 96.8-216.8 216.8 0 119.2 96.8 216.8 216.8 216.8 119.199 0 216.799-96.8 216.799-216.8s-96.8-216.8-216.799-216.8zM761.601 360c-88.8 0-161.6-72.8-161.6-161.6s72.8-161.6 161.6-161.6c88.799 0 161.599 72.8 161.599 161.6s-72 161.6-161.599 161.6z" />
<glyph unicode="&#xe90b;" d="M761.599-15.2c-118.4 0-214.4 96-214.4 214.4s96 214.4 214.4 214.4c118.401 0 214.401-96 214.401-214.4s-96-214.4-214.401-214.4zM761.599 362.4c-90.4 0-164-73.6-164-164s73.6-164 164-164c90.401 0 164.001 73.6 164.001 164s-73.6 164-164.001 164z" />
<glyph unicode="&#xe90c;" d="M761.598 171.2c-15.2 0-27.2 12-27.2 27.2v76.8c0 15.2 12 27.2 27.2 27.2s27.2-12 27.2-27.2v-48.8h26.402c15.2 0 27.2-12 27.2-27.2s-12-27.2-27.2-27.2h-53.602v-0.8z" />
<glyph unicode="&#xe90d;" d="M761.601 173.6c-13.6 0-24.8 11.2-24.8 24.8v76.8c0 13.6 11.2 24.8 24.8 24.8s24.8-11.2 24.8-24.8v-51.2h28.799c13.6 0 24.8-11.2 24.8-24.8s-11.2-24.8-24.8-24.8h-53.599v-0.8z" />
<glyph unicode="&#xe90e;" d="M589.598 510.4c-15.2 0-27.2 12-27.2 27.2s12 27.2 27.2 27.2c15.2 0 27.2-12 27.2-27.2s-12-27.2-27.2-27.2z" />
<glyph unicode="&#xe90f;" d="M427.2 347.2c-15.2 0-27.2 12-27.2 27.2s12 27.2 27.2 27.2c15.2 0 27.2-12 27.2-27.2s-12-27.2-27.2-27.2z" />
<glyph unicode="&#xe910;" d="M264.001 510.4c-15.2 0-27.2 12-27.2 27.2s12 27.2 27.2 27.2c15.2 0 27.2-12 27.2-27.2s-12-27.2-27.2-27.2z" />
<glyph unicode="&#xe911;" d="M264.001 347.2c15.022 0 27.2 12.178 27.2 27.2s-12.178 27.2-27.2 27.2c-15.022 0-27.2-12.178-27.2-27.2s12.178-27.2 27.2-27.2z" />
<glyph unicode="&#xe912;" d="M264.001 184c-15.2 0-27.2 12-27.2 27.2s12 27.2 27.2 27.2c15.2 0 27.2-12 27.2-27.2 0.8-14.4-12-27.2-27.2-27.2z" />
<glyph unicode="&#xe913;" d="M427.2 184c-15.2 0-27.2 12-27.2 27.2s12 27.2 27.2 27.2c15.2 0 27.2-12 27.2-27.2 0-14.4-12-27.2-27.2-27.2z" />
<glyph unicode="&#xe914;" d="M427.2 510.4c-15.2 0-27.2 12-27.2 27.2s12 27.2 27.2 27.2c15.2 0 27.2-12 27.2-27.2s-12-27.2-27.2-27.2z" />
<glyph unicode="&#xe915;" glyph-name="Form-Multi-Selection" d="M933.6 331.2h-848.8c-24.8 0-44.8 20-44.8 44.8v150.4c0 24.8 20 44.8 44.8 44.8h848.8c24.8 0 44.8-20 44.8-44.8v-150.4c0-24.8-20-44.8-44.8-44.8zM930.4 206.4v-144h-842.4v144h842.4zM933.6 254.4h-848.8c-24.8 0-44.8-20-44.8-44.8v-150.4c0-24.8 20-44.8 44.8-44.8h848.8c24.8 0 44.8 20 44.8 44.8v151.2c0 24-20 44-44.8 44zM933.6 648h-848.8c-24.8 0-44.8 20-44.8 44.8v150.4c0 24.8 20 44.8 44.8 44.8h848.8c24.8 0 44.8-20 44.8-44.8v-150.4c0-24.8-20-44.8-44.8-44.8z" />
<glyph unicode="&#xe916;" d="M761.613 359.518c-13.966 15.363-33.52 24.442-55.867 24.442-22.346 0.698-41.9-7.682-57.263-22.346-15.363-15.363-24.442-34.218-24.442-55.867-0.698-22.346 7.682-42.598 22.346-57.263 13.966-15.363 34.218-24.442 55.867-24.442 22.346-0.698 42.598 7.682 57.263 22.346 15.363 13.966 24.442 33.52 24.442 55.867 0.698 23.045-7.682 42.598-22.346 57.263zM751.138 255.466c-12.57-12.57-28.632-18.855-48.883-18.855s-35.615 7.682-46.789 20.95c-12.57 12.57-18.855 28.632-18.855 48.883 0.698 18.855 8.38 35.615 20.95 46.789 11.871 12.57 28.632 18.855 48.883 18.855 18.855-0.698 35.615-8.38 46.789-20.95 12.57-11.871 18.855-28.632 18.855-48.883-1.397-18.157-8.38-35.615-20.95-46.789z" />
<glyph unicode="&#xe917;" d="M705.746 349.042h-1.397c-4.888 0-8.38-4.19-8.38-8.38v-27.934h-27.934c-4.888 0-8.38-4.19-8.38-8.38v-0.698c0-4.888 4.19-8.38 8.38-8.38h27.934v-27.933c0-4.889 4.19-8.38 8.38-8.38 4.889 0 8.38 4.19 8.38 8.38v27.933h27.934c4.889 0 8.38 4.19 8.38 8.38 0 4.889-4.19 8.381-8.38 8.381h-27.934c0.698 10.474 0.698 20.251 0.698 29.33 0.698 4.19-3.491 7.682-7.682 7.682z" />
<glyph unicode="&#xe918;" d="M58.622 78.64c-6.4 0-12 2.4-16.8 7.2-9.6 9.6-9.6 24.8 0 33.6 0.8 0.8 40.8 40.802 92 103.202-70.4 63.2-111.2 167.2-116.8 255.2-12.8 223.2 96.8 388.8 206.4 414.4 71.2 16.8 133.6-23.2 171.2-110.4 72-168-73.6-400.8-191.2-550.4 8-4 16.8-8 25.6-10.4 60-19.2 124.8 3.2 188 66.4-18.4 28.8-27.2 62.4-26.4 100 2.4 102.4 76.8 208 114.4 233.6 34.4 23.2 85.6 31.2 114.4 0 46.4-50.4 4-158.4-127.2-320.8-4-4.8-7.2-8.8-11.2-13.6 2.4-1.6 4.8-4 7.2-5.6 20-15.2 38.4-20.8 55.2-16.8 44.8 9.6 84.8 80 114.4 131.2 30.4 54.4 52.8 93.6 88 84 38.4-11.2 30.4-64.8 21.6-127.2-0.8-7.2-2.4-16.8-4-25.6 7.2 7.2 15.2 16 22.4 24 52.002 56 123.202 132.8 196.002 124 12.8-1.6 22.4-13.6 20.8-26.4s-13.6-22.4-26.4-20.8c-48.8 5.6-112-63.2-154.4-108.8-22.402-24.8-40.802-44-56.002-54.4-17.6-12-31.2-5.6-36.8-2.4-21.6 13.6-16.8 45.6-8.8 97.6 2.4 16 6.4 40 7.2 58.4-8.8-12.8-19.2-31.2-27.2-45.6-35.2-63.2-80-140.8-146.4-154.4-31.2-6.4-62.4 2.4-93.6 25.6-4 3.2-7.2 5.6-10.4 8.8-95.2-92.802-178.4-93.602-234.4-75.2-14.4 4.8-28 11.2-41.6 18.4-51.2-61.602-92-103.202-97.6-108.002-5.6-6.4-12-8.8-17.6-8.8zM253.822 848.242c-6.4 0-12.8-0.8-19.2-2.4-90.4-21.6-180-173.6-168.8-364.8 4.8-77.6 40.8-168 99.2-220.8 23.2 29.6 48 63.2 72 98.4 80 119.2 165.6 286.4 114.4 404.8-24.8 55.2-59.2 84.8-97.6 84.8zM568.222 593.842c-11.2 0-24.8-4-36-12-23.2-16-91.2-107.2-93.6-195.2-0.8-23.2 3.2-43.2 12-61.6 1.6 1.6 2.4 3.2 4 4.8 169.6 210.4 131.2 256.8 129.6 258.4-3.2 3.2-8.8 5.6-16 5.6z" />
<glyph unicode="&#xe919;" d="M208.223-2.96c192 54.4 387.2 100 584 136.8 56.001 10.4 112.801 20 168.801 28.802 12.8 2.4 20 18.4 16.8 29.6-4 13.6-16.8 18.4-29.6 16.8-197.601-31.2-393.6-71.202-587.2-120.802-55.2-14.4-110.401-28.8-165.601-44.8-29.6-8.8-17.6-55.2 12.8-46.4z" />
<glyph unicode="&#xe91a;" glyph-name="Form-Single-Selection" d="M929.6 523.2v-144h-841.6v144h841.6zM932.8 571.2h-848c-24.8 0-44.8-20-44.8-44.8v-150.4c0-24.8 20-44.8 44.8-44.8h848c24.8 0 44.8 20 44.8 44.8v150.4c0 24.8-20 44.8-44.8 44.8zM929.6 206.4v-144h-841.6v144h841.6zM932.8 254.4h-848c-24.8 0-44.8-20-44.8-44.8v-150.4c0-24.8 20-44.8 44.8-44.8h848c24.8 0 44.8 20 44.8 44.8v151.2c0 24-20 44-44.8 44zM932.8 648h-848c-24.8 0-44.8 20-44.8 44.8v150.4c0 24.8 20 44.8 44.8 44.8h848c24.8 0 44.8-20 44.8-44.8v-150.4c0-24.8-20-44.8-44.8-44.8z" />
<glyph unicode="&#xe91b;" d="M666.732 368.742c-13.268 14.595-31.844 23.22-53.074 23.22-21.23 0.663-39.805-7.298-54.4-21.23-14.595-14.595-23.22-32.507-23.22-53.074-0.663-21.23 7.298-40.469 21.23-54.4 13.268-14.595 32.507-23.22 53.074-23.22 21.23-0.663 40.469 7.298 54.4 21.23 14.595 13.268 23.22 31.844 23.22 53.074 0.663 21.893-7.298 40.469-21.23 54.4zM656.781 269.892c-11.942-11.942-27.2-17.912-46.439-17.912s-33.834 7.298-44.45 19.902c-11.942 11.942-17.912 27.201-17.912 46.439 0.663 17.913 7.961 33.834 19.902 44.45 11.278 11.942 27.201 17.912 46.439 17.912 17.913-0.663 33.834-7.961 44.45-19.902 11.942-11.278 17.912-27.2 17.912-46.439-1.326-17.249-7.961-33.834-19.902-44.45z" />
<glyph unicode="&#xe91c;" d="M613.658 358.79h-1.326c-4.644 0-7.961-3.981-7.961-7.961v-26.537h-26.537c-4.644 0-7.962-3.981-7.962-7.962v-0.663c0-4.644 3.981-7.961 7.962-7.961h26.537v-26.537c0-4.644 3.98-7.962 7.961-7.962 4.644 0 7.961 3.981 7.961 7.962v26.537h26.537c4.644 0 7.962 3.98 7.962 7.961 0 4.644-3.981 7.961-7.962 7.961h-26.537c0.663 9.951 0.664 19.239 0.664 27.864 0.663 3.981-3.318 7.298-7.298 7.298z" />
<glyph unicode="&#xe91d;" d="M930.4 573.6v-480h-842.4v480h842.4zM934.4 621.6h-849.6c-24.8 0-44.8-20-44.8-44.8v-486.4c0-24.8 20-44.8 44.8-44.8h849.6c24.8 0 44.8 20 44.8 44.8v486.4c-0.8 24.8-20.8 44.8-44.8 44.8z" />
<glyph unicode="&#xe91e;" d="M603.2 702.4h-486.4c-42.4 0-76.8 34.4-76.8 76.8s34.4 76.8 76.8 76.8h486.4c42.4 0 76.8-34.4 76.8-76.8s-34.4-76.8-76.8-76.8z" />
<glyph unicode="&#xe91f;" glyph-name="Form-Text-Field" d="M903.2 808c15.2 0 27.2-12 27.2-27.2v-660c0-15.2-12-27.2-27.2-27.2h-788c-15.2 0-27.2 12-27.2 27.2v660c0 15.2 12 27.2 27.2 27.2h788zM903.2 856h-788c-41.6 0-75.2-33.6-75.2-75.2v-660c0-41.6 33.6-75.2 75.2-75.2h788c41.6 0 75.2 33.6 75.2 75.2v660c0 41.6-33.6 75.2-75.2 75.2zM453.599 396h-135.2l-32-88h-43.2l121.6 328.8h43.2l121.6-328.8h-43.2l-32.8 88zM332.799 433.6h107.2l-32.8 90.4-20 64h-0.8l-20-64-33.6-90.4zM711.2 461.6c0 18.4-4.8 32-15.2 40.8-9.6 8.8-23.2 12.8-39.2 12.8-13.6 0-27.2-1.6-39.2-4-12-3.2-23.2-7.2-33.6-12l-9.6 28.8c8.8 5.6 20.8 9.6 35.2 14.4 14.4 4 31.2 6.4 48.8 6.4 31.2 0 54.4-8 68.8-24s22.4-36.8 22.4-63.2v-153.6h-30.4l-8 40c-3.2-5.6-7.2-11.2-11.2-16.8s-8.8-10.4-15.2-14.4c-6.4-4-13.6-7.2-21.6-9.6-8.8-2.4-18.4-4-30.4-4-10.4 0-19.2 1.6-28 4.8s-16.8 8-23.2 13.6c-6.4 6.4-12 13.6-16 22.4s-5.6 19.2-5.6 30.4c0 27.2 8.8 47.2 27.2 60s44 20 76 20h48.8v7.2h-0.8zM711.2 423.2h-49.6c-20.8 0-36-4-47.2-12.8-10.4-8.8-16-20.8-16-36.8 0-12 4-21.6 11.2-28.8s16.8-10.4 28.8-10.4c10.4 0 20.8 2.4 29.6 6.4s16 9.6 22.4 16c6.4 6.4 11.2 14.4 15.2 22.4 3.2 8 5.6 16.8 5.6 24.8v19.2z" />
<glyph unicode="&#xe920;" glyph-name="Uncheck" d="M516.8-16.8c-20 0-36.8 16.8-36.8 36.8s16 36.8 36.8 36.8c60 0 117.6 13.6 171.2 39.2 18.4 8.8 40 1.6 48.8-16.8s1.6-40-16.8-48.8c-63.2-31.2-132-46.4-203.2-47.2zM329.6 25.6c-5.6 0-10.4 0.8-16 4-63.2 30.4-119.2 75.2-163.2 129.6-12.8 16-10.4 39.2 5.6 52s39.2 10.4 52-5.6c36.8-46.4 84.8-84 137.6-109.6 18.4-8.8 26.4-30.4 17.6-48.8-6.4-13.6-20-21.6-33.6-21.6zM853.6 146.4c-8 0-16 2.4-23.2 8-16 12.8-18.4 36-5.6 52 36.8 46.4 63.2 100.8 76 158.4 4.8 20 24 32 44 28 20-4.8 32-24 28-44-15.2-68-46.4-132.8-90.4-188-7.2-9.6-17.6-14.4-28.8-14.4zM96 317.6c-16.8 0-32 11.2-36 28.8-8 34.4-12 69.6-12 105.6 0 34.4 4 69.6 11.2 103.2 4.8 20 24 32 44 28 20-4.8 32-24 28-44-6.4-28-9.6-57.6-9.6-86.4 0-30.4 3.2-60 10.4-88.8 4.8-20-8-39.2-27.2-44-3.2-1.6-6.4-2.4-8.8-2.4zM936.8 511.2c-16.8 0-32 11.2-36 28.8-12.8 57.6-39.2 112-76 158.4-12.8 16-10.4 39.2 5.6 52s39.2 10.4 52-5.6c44-54.4 75.2-120 90.4-188 4.8-20-8-39.2-28-44-2.4-0.8-5.6-1.6-8-1.6zM177.6 683.2c-8 0-16 2.4-23.2 8-16 12.8-18.4 36-5.6 52 43.2 55.2 99.2 100 162.4 130.4 18.4 8.8 40 1.6 48.8-16.8s1.6-40-16.8-48.8c-52.8-25.6-100-64-136.8-110.4-7.2-9.6-17.6-14.4-28.8-14.4zM703.2 804c-5.6 0-10.4 0.8-16 4-53.6 25.6-111.2 38.4-171.2 38.4h-1.6c-20 0-36.8 16.8-36.8 36.8s16.8 36.8 36.8 36.8h1.6c71.2 0 140-15.2 203.2-46.4 18.4-8.8 25.6-31.2 16.8-48.8-5.6-13.6-19.2-20.8-32.8-20.8z" />
</font>
</defs>
</svg>
