<svg width="50" height="50" viewBox="0 0 50 50" fill="none" xmlns="http://www.w3.org/2000/svg">
<path d="M49.7789 46.7403C48.7753 44.2721 48.2734 41.542 46.7521 37.745C46.4933 37.1012 47.5033 36.0028 47.6075 35.5767C49.1288 32.3353 49.9746 28.7182 49.962 24.8992C49.9178 11.1507 38.3345 -0.208561 24.5891 0.00290563C11.0837 0.211216 0.178903 11.1349 0.0021545 24.6467C-0.17775 38.4015 10.9322 49.8018 24.687 49.9596C28.708 50.0069 32.5112 49.1011 35.8884 47.4599C36.3461 47.3368 36.8195 46.7718 37.4571 46.8886C40.184 47.3873 44.5459 49.281 47.0867 49.9091C49.2897 50.452 50.4765 48.4572 49.7789 46.7403ZM31.7127 31.3063C30.305 35.3779 26.1294 38.5467 22.3577 39.7145C20.4829 40.2006 18.9711 40.6361 18.021 38.7708C17.7086 37.846 17.8727 36.2742 19.2772 35.7471C25.6307 33.3642 27.2404 31.7892 27.2404 29.9902C27.2404 28.128 24.283 27.2222 22.0484 26.0039C20.9942 25.4294 19.5013 24.593 18.6744 22.8382C17.8758 21.1433 17.9106 19.0539 18.6649 17.4821C21.2909 12.0029 32.8553 10.4121 31.6906 15.2632C31.3087 16.854 29.8442 16.9329 27.9221 16.9329C25.6623 16.9329 22.4808 17.6999 22.5123 20.0039C22.5344 21.6325 24.4282 22.128 26.183 22.9739C30.6017 25.1012 32.9026 27.866 31.7127 31.3063Z" fill="#FFC505"/>
</svg>
